<svg xmlns="http://www.w3.org/2000/svg" viewBox="51.908 136.312 670.205 486.328"><path fill="#363636" d="m394.18,137.7s-22.74-8.47-32.48,16.43c-6.37,16.29-3.25,33.56-14.07,43.31-10.83,9.74-17.32,10.83-17.32,10.83,0,0,51.97,12.93,96.36,6.5l23.82-6.5s-8.66-5.41-9.74-14.07c0,0,7.58,12.99,12.99,12.99l6.5-2.17s-20.57-12.99-32.48-44.39c-11.91-31.4-33.56-22.93-33.56-22.93Z"/><path fill="#ff9696" d="m435.33,177.94c0,8.37-8.66,19.49-21.65,18.4-6.55-.55-3.25-6.79-3.25-15.16s5.33-15.16,11.91-15.16,12.99,3.54,12.99,11.91Z"/><path d="m415.39,196.92c-.58,0-1.17-.02-1.76-.07-1.67-.14-2.83-.64-3.57-1.54-1.34-1.65-1.03-4.33-.62-7.74.23-1.91.48-4.07.48-6.38,0-8.63,5.57-15.66,12.41-15.66,6.22,0,13.49,3.25,13.49,12.41,0,4.63-2.51,9.81-6.55,13.53-3.86,3.55-8.73,5.45-13.88,5.45Zm6.94-30.39c-6.29,0-11.41,6.58-11.41,14.66,0,2.37-.26,4.56-.49,6.5-.38,3.17-.67,5.67.4,6.99.55.68,1.49,1.06,2.88,1.18,5.51.45,10.8-1.36,14.88-5.12,3.84-3.53,6.23-8.44,6.23-12.79,0-8.42-6.73-11.41-12.49-11.41Z"/><path fill="#ff9696" d="m435.33,237.49s0,12.99-36.81,12.99c-34.8,0-46.56-16.24-46.56-16.24,15.63-9.23,21-25.45,22.85-35.52h0c.71-3.86.9-6.81.95-8.12.02-.49.02-.75.02-.75l35.73-1.08c-.03.48-.04.96-.02,1.46.04,2.97.76,6.29,1.91,9.76,5.68,17.01,21.93,37.5,21.93,37.5Z"/><path d="m413.4,199.99c-2.5,6.42-6.03,12.69-9.85,17.93-2.23,3.07-5.16,6.18-8.95,6.42-3.97.24-7.35-2.76-9.91-5.81-3.21-3.83-4.84-9.15-6.99-13.67-.72-1.51-1.93-3.8-2.89-6.14h0c.71-3.86.9-6.81.95-8.12,2.86-.66,7.56.01,9.56-.02,8.73-.12,17.45-.23,26.17-.35.04,2.97.76,6.29,1.91,9.76Z"/><path fill="#ff9696" d="m353.29,177.94c0,8.37,8.66,19.49,21.65,18.4,6.55-.55,3.25-6.79,3.25-15.16,0-8.37-5.33-15.16-11.91-15.16-6.58,0-12.99,3.54-12.99,11.91Z"/><path d="m373.23,196.92c-5.15,0-10.03-1.9-13.88-5.45-4.04-3.72-6.55-8.9-6.55-13.53,0-9.16,7.27-12.41,13.49-12.41,6.84,0,12.41,7.02,12.41,15.66,0,2.31.26,4.47.48,6.38.4,3.4.72,6.09-.62,7.74-.73.9-1.9,1.4-3.57,1.54-.59.05-1.18.07-1.76.07Zm-6.94-30.39c-5.76,0-12.49,2.99-12.49,11.41,0,4.35,2.39,9.26,6.23,12.79,4.08,3.76,9.37,5.57,14.88,5.12,1.38-.12,2.33-.5,2.88-1.18,1.08-1.32.78-3.82.4-6.99-.23-1.94-.49-4.13-.49-6.5,0-8.08-5.12-14.66-11.41-14.66Z"/><path fill="#ff9696" d="m421.41,169.95c0,30.04-18.85,41.56-27.23,41.56-7.33,0-27.23-10.47-27.23-41.56,0-15.8,12.19-22.32,27.23-22.32s27.23,6.52,27.23,22.32Z"/><path d="m428.13,184.06l-1.05-.17c.56-3.46-1.15-7.13-4.15-8.93l.55-.92c3.37,2.02,5.28,6.14,4.65,10.02Z"/><path d="M423 184.25l-.72-.79c1.5-1.38 2.89-2.88 4.15-4.48l.84.66c-1.29 1.65-2.73 3.2-4.27 4.61zM359.43 184.06c-.63-3.88 1.29-8 4.65-10.02l.55.92c-3 1.8-4.71 5.48-4.15 8.93l-1.05.17z"/><path d="M364.56 184.25c-1.54-1.41-2.97-2.96-4.27-4.61l.84-.66c1.26 1.6 2.65 3.11 4.15 4.48l-.72.79zM391.05 183.28l-.98-.43c2.22-5.04 3.16-10.6 2.72-16.09l1.06-.09c.46 5.66-.52 11.4-2.81 16.6zM405.4 173.43c-2.36 0-4.71-.66-6.76-1.99l.58-.9c3.97 2.57 9.21 2.4 13.05-.45l.64.86c-2.21 1.64-4.86 2.47-7.51 2.47z"/><path fill="#ff9696" d="m587.7,377.53c-2.59-2.32-4.05-3.63-4.05-3.63-67.12-106.1-103.96-123.42-103.96-123.42-84.47-22.74-4.31,100.69-4.31,100.69,0,0,37.59,44.65,53.57,61.12,7.66-25.29,33.46-36.15,58.75-34.76Z"/><path d="M380.5 173.43c-2.36 0-4.71-.66-6.76-1.99l.58-.9c3.97 2.57 9.21 2.39 13.05-.45l.64.86c-2.21 1.64-4.86 2.47-7.51 2.47zM394.42 191.34c-3.4 0-6.79-1.26-9.36-3.5l.7-.8c2.49 2.17 5.79 3.35 9.12 3.23 3.3-.12 6.53-1.54 8.86-3.89l.76.75c-2.51 2.54-6.01 4.07-9.58 4.2-.17 0-.33 0-.5 0z"/><path fill="#363636" d="m406.09,160.62l2.17-8.66s3.23,6.23,3.24,8.53l2.17.14s3.36,39.65-5.41,48.72c0,0,15.28-17.05,15.16-41.14-.12-24.09-12.62-23.52-19.3-23.67s-22.92-1.23-29.42,2.02-10.83,8.66-11.91,21.65,2.17,28.15,16.24,42.22c0,0-16.48-38.29-4.99-50.54l32.06.74Z"/><path fill="#ff9696" d="m320.56,243.99s-27.07,5.41-49.8,33.56c-20.92,25.9-71.45,92.98-82.64,108.2,9.67-2.3,19.89-1.1,29.59,1.14,20.64,3.75,43.72,11.58,56.55,28.4l59.29-84.7s51.97-94.19-12.99-86.61Z"/><path fill="#d8b8b8" d="m359.84,219.63l-7.88,10.4-44.39,11.79s1.7,121.52-16.24,148.32l-20.13,87.69,249.42-6.5-21.86-93.95s-23.37-92.26-22.29-135.57l-44.39-12.99-4.33-10.83s-7.58,8.66-34.64,8.66-33.26-7.04-33.26-7.04Z"/><path fill="#ff8383" d="m151.67,458.35c-12.96,4.1-23.33,8.72-31.46,13.72,4.38-.31,8.76-.52,13.05-.72,58.46-3.25,118.01,0,172.14,24.9,28.21,13.62,56.41,26.37,79.12,47.66l3.16-77.4s-109.35-48.21-236.02-8.15Z"/><path fill="#ff8383" d="m534.93,478.92c43.48-9.96,89.23-26.74,132.19-19.28-.73-.8-1.49-1.59-2.27-2.38-48.72-48.72-277.16,9.23-277.16,9.23l-51.49,75.13c54.26-19.94,109.55-36.87,167.34-52.97,10.83-3.25,20.57-7.58,31.4-9.74Z"/><path fill="#f6e9e9" d="m504.61,486.5h-219.78v-111.36c0-4.27,3.46-7.73,7.73-7.73h204.32c4.27,0,7.73,3.46,7.73,7.73v111.36Z"/><rect width="219.78" height="9.74" x="284.84" y="486.5" fill="#4f4f4f"/><path fill="#fff" d="m413.73,435.02c-1.35,8.01-8.56,13.58-16.3,13.58s-14.95-5.58-16.3-13.58c-1.62-9.6,5.54-18.9,16.3-18.9s17.92,9.3,16.3,18.9Z"/><path fill="#ff8383" d="m534.93,478.92c-10.83,2.17-20.57,6.5-31.4,9.74-57.78,16.1-113.08,33.03-167.34,52.97l-32.38,47.25s66.55,25.37,209.13,6.91c140.28-18.16,198.72-87.52,154.17-136.15-42.96-7.47-88.71,9.31-132.19,19.28Z"/><path fill="#ff9696" d="m557.66,614.25c-7.65,1.34-18.96,2.97-32.79,4.39-.53.06-1.06.12-1.6.17h-.01c-.56.06-1.13.11-1.69.17-43.04,4.21-108.33,6.21-164.2-7.62-62.79-12.27-37.89-69.65,5.59-54.58,10.35,3.58,32.3,10.11,42.05,4.42,5.07-2.96,12.03-6.7,19.06-10.12.18-.09.35-.17.53-.26.17-.08.35-.17.52-.25,10.65-5.13,21.22-9.37,25.36-8.86,8.66,1.09,10.09-.93,30.49,21.73,20.4,22.66,48.55,4.26,83.19,15.08,34.64,10.83,24.9,30.23-6.5,35.73Z"/><path fill="#f90000" d="m557.66,614.25c-7.94,1.39-19.83,3.1-34.39,4.56,1.45-.67,2.88-1.38,4.29-2.12,5.01-2.63,10.27-6.44,10.95-12.05.89-7.21-6.2-12.84-12.96-15.5-19.14-7.53-41.62-4.34-59.8-13.95-8.43-4.47-15.28-11.38-23.16-16.77-2.81-1.92-5.8-3.64-8.95-4.93-2.28-.94-6.9-1.05-8.69-2.38-.12-.09-.24-.18-.35-.29,10.82-5.24,21.67-9.63,25.88-9.11,8.66,1.09,10.09-.93,30.49,21.73,20.4,22.66,48.55,4.26,83.19,15.08,34.64,10.83,24.9,30.23-6.5,35.73Z"/><path d="m525.74,588.65c-8.76-3.45-18.34-4.68-27.6-5.87-10.97-1.41-22.32-2.87-32.14-8.07-5.12-2.71-9.76-6.41-14.24-10-2.85-2.28-5.8-4.64-8.87-6.73-3.11-2.14-6.07-3.77-9.05-4.98-1.01-.42-2.38-.67-3.83-.93-1.87-.34-3.81-.69-4.75-1.39-.05-.04-.09-.07-.14-.11-.17.08-.35.17-.52.25-.18.09-.35.17-.53.26.17.16.36.31.56.46,1.14.84,3.2,1.22,5.19,1.58,1.4.25,2.71.49,3.62.86,2.9,1.19,5.8,2.79,8.85,4.88,3.03,2.07,5.97,4.42,8.8,6.69,4.53,3.61,9.2,7.35,14.41,10.11,10,5.29,21.44,6.76,32.51,8.18,9.19,1.18,18.7,2.4,27.34,5.8,6.37,2.5,13.49,7.92,12.63,14.93-.53,4.35-4.02,8.16-10.67,11.65-1.88.98-3.79,1.9-5.74,2.76.56-.06,1.13-.11,1.69-.17h.01c.54-.05,1.07-.11,1.6-.17.99-.47,1.97-.96,2.94-1.47,6.98-3.67,10.65-7.75,11.23-12.47.94-7.62-6.58-13.41-13.3-16.05Z"/><path fill="#ff8383" d="m133.27,471.34c-4.3.2-8.67.41-13.05.72-71.34,43.85-17.26,104.29,69.35,122.7,43.51,9.25,163.67,18.99,163.67,18.99l31.2-67.63.09-2.22c-22.71-21.29-50.92-34.04-79.12-47.66-54.13-24.9-113.68-28.15-172.14-24.9Z"/><path fill="#ff9696" d="m217.71,386.9c-9.7-2.24-19.92-3.45-29.59-1.14-.97,1.32-1.65,2.26-1.98,2.74-4.15,5.98-82.1,87.18-82.1,87.18-12.99,17.32-25.82,61.12,37.89,40.06,54.94-18.17,131-98.52,131-98.52l1.34-1.91c-12.84-16.82-35.91-24.65-56.55-28.4Z"/><path fill="#ff9696" d="m135.43,508.15s4.47,28.06,3.86,33.52c-.61,5.46-8.19,8.7-14.69,20.61-5.84,10.7-12.55,17.91-14.64,30.26-.41,2.41-2.88,3.87-5.16,2.99-6.07-2.36-15.18-8.12-8.36-20.25,9.74-17.32,5.41-27.07,5.41-27.07,0,0-7.58-46.55,8.66-44.39,16.24,2.17,24.9,4.33,24.9,4.33Z"/><path fill="#ff9696" d="M104.04 475.67l-47.11 51.91c-3.77 4.16-5.56 9.76-4.88 15.33l3.27 26.95s1.08 16.24 15.16 16.24c0 0 4.03 4.38 16.24 5.41 2.87.24 3.25 3.25 11.73.42l28.33-44.8-22.74-71.45zM696.24 477.84c-13.06-14.6-89.95-83.65-108.54-100.31-25.28-1.39-51.08 9.48-58.75 34.76.58.59 1.13 1.15 1.64 1.67 15.16 15.16 90.17 74.53 116.93 96.36 41.14 33.56 67.12-11.91 48.72-32.48z"/><path fill="#ff9696" d="m650.77,497.32s-11.96,23.73-5.44,44.35c6.52,20.61,8.69,21.7,8.69,33.6s8.66,17.32,16.24,10.83c7.58-6.5,8.66-12.99,8.66-32.48s16.24-28.15,16.24-28.15c0,0,4.33-53.05-44.39-28.15Z"/><path fill="#ff9696" d="m696.24,477.84s22.24,33.71,25.19,44.46c2.26,8.23-1.65,30.46-3.61,40.43-.57,2.89-3.1,4.97-6.04,4.97h-2.61l-5.29,4.53c-1.06.91-2.4,1.43-3.79,1.48l-46.08,1.58-16.82-37.6c-1-2.23-.39-4.85,1.48-6.42,3.52-2.95,9.42-6.82,14.32-4.7,7.51,3.25,43.24-48.72,43.24-48.72Z"/><path d="M695.84 478.19c-11.36-12.69-71.94-67.42-97.46-90.36l.71-.79c25.54 22.95 86.16 77.71 97.55 90.44l-.79.71zM663.57 589.41c-1.18 0-2.35-.25-3.45-.76-4.09-1.88-6.64-7.01-6.64-13.38 0-8.27-1.07-11.3-3.93-19.41-1.24-3.52-2.79-7.89-4.73-14.04-2.56-8.08-2.64-17.53-.24-28.09l1.04.24c-2.35 10.37-2.28 19.63.22 27.53 1.94 6.13 3.48 10.5 4.72 14 2.91 8.23 3.99 11.31 3.99 19.76 0 5.95 2.31 10.7 6.02 12.41 2.9 1.34 6.31.61 9.34-1.99 7.42-6.36 8.47-12.55 8.47-32.07s16.36-28.53 16.52-28.62l.5.94c-.16.09-15.96 8.75-15.96 27.68s-1.16 26.3-8.85 32.88c-2.24 1.92-4.68 2.91-7.03 2.91z"/><rect width="22.97" height="1.07" x="698.83" y="555.25" transform="rotate(-81.9 710.308 555.79)"/><rect width="22.97" height="1.07" x="691.26" y="561.75" transform="rotate(-81.9 702.732 562.286)"/><path d="m386.73,252.16c-5.1,0-10.19-.48-15.19-1.46l.21-1.05c15.87,3.11,32.73,1.16,47.47-5.49l.44.97c-10.3,4.64-21.61,7.02-32.92,7.02Z"/><path fill="#f6f6f6" d="m110.53,486.5s22.93,15.44,31.37,28.92c1.04,1.66,3.14,2.3,4.91,1.46l15.98-7.61c1.96-.93,2.76-3.31,1.75-5.22-4.46-8.46-17.41-29.78-38.84-39.21l-15.16,21.65Z"/><path d="m145.19,517.75c-1.46,0-2.88-.74-3.71-2.06-8.29-13.24-31-28.62-31.23-28.78l-.42-.29,15.68-22.41.38.17c21.51,9.46,34.5,30.73,39.08,39.43.55,1.04.65,2.24.28,3.36-.38,1.13-1.17,2.03-2.25,2.55l-15.98,7.61c-.59.28-1.22.42-1.84.42Zm-33.95-31.38c3.17,2.19,23.33,16.38,31.1,28.79.91,1.45,2.74,2,4.27,1.28l15.98-7.61c.83-.39,1.44-1.09,1.73-1.96.29-.86.21-1.78-.21-2.58-4.51-8.56-17.23-29.4-38.23-38.82l-14.63,20.9Z"/><path d="m110.68,493l-15.84-13.63c-.8-.69-.68-2.21.26-3.41l18.74-24.01c.89-1.14,2.33-1.66,3.23-1.16l17.86,9.87c1.14.63,1.28,2.21.3,3.52l-20.82,27.87c-1.05,1.4-2.73,1.82-3.74.95Z"/><path d="M126.97 474.34l-.03-.02c-.77-.51-.82-1.66-.13-2.59l4.19-5.59c.68-.91 1.87-1.28 2.66-.82l.03.02c.8.47.89 1.6.2 2.52l-4.25 5.7c-.7.94-1.9 1.29-2.68.78zM115.13 490.18l-.03-.02c-.72-.59-.72-1.84 0-2.8l4.33-5.78c.71-.94 1.88-1.27 2.63-.73l.03.02c.76.55.79 1.77.08 2.73l-4.39 5.89c-.73.97-1.91 1.28-2.64.68z"/><path d="m111.53,491.53l-15.65-13.23c-.5-.42-.43-1.36.15-2.1l18.32-23.5c.55-.7,1.44-1.02,2-.71l17.48,9.83c.7.39.78,1.36.17,2.17l-20.18,26.96c-.64.86-1.67,1.12-2.29.59Z"/><polygon points="476.32 242.33 431.68 229.27 427.25 218.2 428.24 217.8 432.48 228.39 476.62 241.31 476.32 242.33"/><path d="M487.41 329.53c-5.55-27.23-12.05-64.55-11.47-87.72l1.07.03c-.58 23.07 5.91 60.31 11.45 87.48l-1.05.21zM302.33 353.37l-1.06-.16c4.5-30.54 5.54-70.75 5.76-92h1.07c-.22 21.29-1.26 61.56-5.77 92.16zM331.88 235.92l-.27-1.03 20.04-5.32 8.17-10.78.43.49c.06.07 6.48 6.86 32.86 6.86 1.99 0 3.94-.05 5.81-.14l.05 1.07c-1.88.09-3.85.14-5.86.14-23.38 0-31.32-5.19-33.19-6.78l-7.64 10.08-20.39 5.42z"/><path d="M545.2 318.72c-22.08-29.4-38.78-46.25-48.9-55.22-10.96-9.72-16.78-12.51-16.84-12.54-.99-.26-2.04-.52-3.07-.77l.25-1.04c1.04.25 2.1.51 3.19.81.33.14 6.05 2.89 17.1 12.67 10.17 9 26.94 25.92 49.12 55.44l-.85.64zM550.73 395.55l-.15-1.06c9.57-1.39 17.37-10.72 17.04-20.39l1.07-.04c.36 10.19-7.86 20.02-17.95 21.48zM234.05 398.45c-7.04-4.78-13.33-10.56-18.7-17.16l.83-.67c5.3 6.53 11.51 12.23 18.47 16.95l-.6.88zM221.24 342.54l-.85-.64c12.99-17.14 36.75-48.33 49.96-64.68 12.92-15.99 27.24-24.66 36.99-29.11l.44.97c-9.64 4.41-23.81 12.98-36.6 28.81-13.2 16.34-36.95 47.52-49.94 64.65zM106.19 596.32c-.53 0-1.06-.1-1.57-.3-3.84-1.49-8.78-4.29-10.5-9.1-1.25-3.48-.61-7.49 1.87-11.91 9.5-16.89 5.43-26.49 5.39-26.59l.98-.43c.18.41 4.33 10.19-5.44 27.54-2.33 4.14-2.94 7.85-1.8 11.03 1.59 4.44 6.25 7.05 9.88 8.47.91.35 1.93.28 2.78-.2.88-.5 1.48-1.37 1.66-2.38 1.52-8.99 5.5-15.35 9.71-22.08 1.65-2.64 3.35-5.36 4.99-8.35 3.3-6.06 6.85-9.85 9.69-12.9 2.7-2.89 4.65-4.98 4.93-7.51.18-1.61-.08-5.44-.77-11.4l1.06-.12c.7 6.04.97 9.95.78 11.64-.32 2.88-2.38 5.08-5.21 8.12-2.8 3.01-6.29 6.75-9.53 12.69-1.65 3.02-3.36 5.76-5.02 8.41-4.15 6.64-8.08 12.91-9.56 21.69-.22 1.33-1.02 2.47-2.18 3.13-.66.38-1.39.56-2.13.56z"/><rect width="1.07" height="38.14" x="84.56" y="554.04" transform="rotate(-6.52 85.105 573.055)"/><rect width="1.07" height="38.14" x="68.32" y="548.63" transform="rotate(-6.52 68.857 567.638)"/><rect width="110.43" height="1.07" x="315.15" y="367.42"/><rect width="1.07" height="74.7" x="503.54" y="412.34"/><path d="M384.17 544.29c-21.02-19.71-46.23-31.82-72.91-44.64-2.02-.97-4.05-1.95-6.08-2.92-23.83-10.96-49.63-18.24-78.86-22.26l.15-1.06c29.34 4.03 55.24 11.34 79.17 22.35 2.03.98 4.06 1.96 6.08 2.93 26.76 12.86 52.04 25.01 73.18 44.83l-.73.78zM369.7 530.3l-.35-1.01c39.89-13.7 82.48-26.78 134.04-41.14 3.93-1.18 7.78-2.52 11.5-3.82 6.7-2.34 13.03-4.55 19.94-5.93l.21 1.05c-6.84 1.37-13.13 3.57-19.8 5.89-3.73 1.3-7.59 2.65-11.55 3.84-51.54 14.37-94.11 27.43-133.99 41.13zM564 579.03c-14.47-4.52-28.02-3.9-39.97-3.36-16.88.77-31.46 1.44-43.45-11.88-18.33-20.36-21.12-20.64-27.86-21.31-.72-.07-1.47-.15-2.3-.25-6.36-.77-30.3 10.77-45.14 19.42l-.54-.92c11.18-6.52 38.24-20.53 45.81-19.56.81.1 1.56.18 2.27.25 7.03.7 9.94.98 28.54 21.65 11.65 12.95 26 12.29 42.61 11.53 12.04-.55 25.69-1.18 40.34 3.4l-.32 1.02zM458.22 622.64c-38.17 0-72.09-3.61-100.98-10.76l.26-1.04c31.68 7.84 69.45 11.42 112.27 10.62l.02 1.07c-3.9.07-7.75.11-11.57.11z"/><rect width="76.07" height="1.07" x="331.25" y="578.53" transform="rotate(-65.59 369.29 579.068)"/></svg>