<svg xmlns="http://www.w3.org/2000/svg" viewBox="57.718 53 1120.352 871.978"><circle cx="362.18" cy="370.09" r="265.67" fill="#f6f6f6" transform="translate(110.216 -17.114) scale(1.41224)"/><g transform="translate(431.18 53.49)"><rect width="365.43" height="599.7" x="5.32" y="-.49" fill="#d8b8b8" rx="44.87" ry="44.87"/><path fill="#ffffff9f9" d="m318.24,8.64h-37.57c-4.01,0-7.81,1.79-10.36,4.87l-4.94,5.97c-4.2,5.07-10.55,8.01-17.27,8.01h-116.26c-5.87,0-11.49-2.25-15.64-6.25l-9.13-8.82c-2.51-2.42-5.86-3.78-9.35-3.78h-39.89c-24.44,0-44.25,19.81-44.25,44.25v493.83c0,24.44,19.81,44.25,44.25,44.25h260.41c24.44,0,44.25-19.81,44.27-40.28V56.86c-.02-28.4-19.84-48.21-44.27-48.21Z"/><rect width="327.61" height="365.13" x="24.53" y="105.97" fill="#fff"/><path fill="#d8b8b8" stroke="#000" stroke-miterlimit="10" stroke-width=".64" d="m345.63,499.83l-5.59-6.81c-.3-.32-.8-.32-1.1,0l-5.59,5.9c-.49.51-1.33.16-1.33-.57v-17.1c0-.89.75-1.62,1.67-1.62h11.61c.92,0,1.67.72,1.67,1.62v18.01c0,.72-.84,1.08-1.33.57Z"/><path fill="#f90000" d="m45.84,499.37c-.82,0-1.6-.31-2.18-.89l-6.96-6.91c-2.75-2.72-2.77-7.15-.05-9.89,2.44-2.46,6.32-2.77,9.11-.71,3.1-2.31,7.48-1.67,9.79,1.42,2.07,2.78,1.8,6.66-.65,9.12l-6.9,6.96c-.57.58-1.36.9-2.17.91Z"/><rect width="233.66" height="9.76" x="34.6" y="518.99" fill="#d8b8b8"/><rect width="102.8" height="9.76" x="34.6" y="536.99" fill="#d8b8b8"/><rect width="79" height="9.76" x="62.05" y="63.26" fill="#d8b8b8"/><rect width="79" height="9.76" x="272.83" y="63.26" fill="#d8b8b8"/><rect width="54.6" height="9.76" x="62.05" y="77.91" fill="#d8b8b8"/><circle cx="39.18" cy="75.46" r="12.2" fill="#d8b8b8"/><polygon fill="#fff" stroke="#000" stroke-linecap="round" stroke-linejoin="round" stroke-width=".76" points="96.98 488.64 102.78 491.08 104.91 498.09 108.27 494.43 114.15 499.09 118.03 480.1 96.98 488.64"/><polyline fill="#fff" stroke="#000" stroke-linecap="round" stroke-linejoin="round" stroke-width=".76" points="102.78 491.08 113.45 484.67 106.44 492.91 108.27 494.43"/><path fill="#fff" stroke="#000" stroke-linecap="round" stroke-linejoin="round" stroke-width=".76" d="m85.39,489.4c0-4.97-4.03-9-9-9s-9,4.03-9,9c0,4.68,3.58,8.53,8.15,8.96l9.85.04-2.64-2.64c1.63-1.63,2.64-3.88,2.64-6.36Z"/><circle cx="248.89" cy="16.14" r="5.34"/><rect width="104.32" height="5.8" x="128.86" y="13.24"/></g><g transform="translate(454.775 166.65) scale(.63884)"><path d="m95.72,370.79s17.58,68.47-7.6,67.05c-25.19-1.43-40.87-121.26-30.42-124.58,10.46-3.33,30.42-6.18,38.02,57.54Z"/><path fill="#ff9797" d="m229.78,311.14c0,19.8-11.31,38.74-30.48,47.52l-46.82,21.47-13.46,6.17-16.32,7.48-1.16.53-9.11,4.18-11.18,5.12-1.71.78-28.59,13.11-31,14.21c-12.23,5.61-25.5,6.09-37.4,2.35-.58-.18-1.15-.37-1.71-.57.57.17,1.14.33,1.71.48v-100.05l53.57-24.57,12.74-5.84,25.15-11.53.06-.03,33.38-15.3,2.08-.95,10.37-4.76.62-.29.25-.11,15.01-6.89c.77-.35,1.53-.68,2.3-.99,2.15-.87,4.32-1.58,6.52-2.14,2.75-.71,5.52-1.18,8.29-1.43.76-.07,1.52-.12,2.27-.15h.07c1.16-.06,2.32-.07,3.49-.04,2.27.05,4.51.25,6.74.59,16.46,2.54,31.4,12.91,39.12,28.99.14.29.28.59.42.89,3.23,7.05,4.76,14.45,4.76,21.74Z"/><path fill="#575757" d="m422.21,242.41c-15.21-18.07-29.47-10.46-23.76-41.85,5.7-31.38-.95-38.52-30.42-49.45-29.47-10.94-16.63-39.94-18.53-52.78-1.9-12.84-16.63-37.57-63.68-40.89-35.1-2.48-48.78,17-53.46,27.06-7.38,1.35-31.34,11.02-33.99,31.43-2.91,22.43,1.34,28.6,11.15,44.51-3.71,11.1-3.09,22.82,1.68,39.18,6.65,22.82-5.23,6.18-20.91,33.76-15.68,27.58,8.55,55.16,8.55,55.16l232.35-.19s6.23-27.86-8.98-45.93Z"/><path fill="#d8b8b8" d="m461.04,561l-6.05-105.16-.04-.64-.44-7.6-.16-2.82-7.64-132.92-.12-2.07-1.5-26.08-.36-6.32-12.29-4.03-8.47-2.78c-.08-.02-.16-.05-.24-.08l-77.08-25.25-130.69,10.94-30.64,2.08-7.78.53h0l-2.28.16h-.07s-2.27.16-2.27.16l-17.17,45.2h0s-6.58,17.32-6.58,17.32l-8.92,23.48-3.73,9.82h0s-.18.46-.18.46l-11.23,29.56-3.55,9.35-7.97,20.97-3.14,8.25-52.22,137.47h402.81Z"/><path fill="#d8b8b8" d="m93.55,436.82c12.62-5.63,78.17-71.71,91.51-102.16,13.14-30,14.08-64.59-2.85-74.66-12.69-7.55-81.97,20.5-113.85,42.52,0,0,47.74,90.48,25.19,134.3Z"/><line x1="64.11" x2="163.44" y1="545.55" y2="288.29" fill="none" stroke="#000" stroke-linecap="round" stroke-linejoin="round" stroke-width="1.9"/><path fill="#ff9797" d="m469.74,284.73c0,21.4-46.57,49.93-137.82,48.03s-115.96-76.56-115.96-76.56c10.39-1.75,17.71-7.39,22.87-14.35,11.61-15.63,12.29-37.96,12.29-37.96-.41-11.63.26-33.06,12.16-44.32,1.73-1.63,3.68-3.04,5.9-4.18,11.39-5.85,27.16-1.73,36.86,1.9,5.28,1.97,8.76,3.8,8.76,3.8,5.23,23.78,11.9,52.06,35.17,73.7,27.09,25.2,119.76,49.93,119.76,49.93Z"/><path d="m306.04,157.29s-.74,67.05-45.89,88.45c-11.65,5.52-18.21,3-21.32-3.88,11.61-15.63,12.29-37.96,12.29-37.96-.41-11.63.26-33.06,12.16-44.32,14.74-3.73,42.76-2.28,42.76-2.28Z"/><path fill="#ff9797" d="m328.59,128.09c-5.43-4.57-12.65-5.79-19.49-4-13.09-27.69-38.11-38.72-62.99-29.69-26.92,9.78-43.46,39.34-31.52,72.27,11.94,32.93,24.94,58.41,51.86,48.64,15.08-5.47,31.32-20.85,40.6-39.1,8.73-2.95,17.73-8.88,22.55-14.62,8.87-10.56,8.42-25.56-1.02-33.5Z"/><path fill="none" stroke="#000" stroke-miterlimit="10" stroke-width="2.04" d="M310.9 137.33c6.89 1.44 13.33 4.91 18.32 9.87M322.41 141.86c-.2 3.22-.4 6.44-.6 9.67"/><ellipse cx="261.44" cy="146.81" rx="3.24" ry="4.52" transform="rotate(-19.91 261.477 146.82)"/><ellipse cx="229.42" cy="157.29" rx="3.24" ry="4.52" transform="rotate(-19.91 229.452 157.292)"/><path fill="none" stroke="#000" stroke-miterlimit="10" stroke-width="2.04" d="M239.83 145.41c3.97 4.58 6.04 10.78 5.6 16.83s-3.36 11.89-7.95 15.86M255.63 187.82c8.1-3.27 13.97-11.49 14.42-20.22"/><path fill="none" stroke="#000" stroke-miterlimit="10" stroke-width="2.04" d="m251.74,217.14c4.41.67,9.28.14,14.72-1.84,15.08-5.47,31.32-20.85,40.6-39.1,8.73-2.95,17.73-8.88,22.55-14.62,8.87-10.56,8.42-25.56-1.02-33.5-5.43-4.57-12.65-5.79-19.49-4-13.09-27.69-38.11-38.72-62.99-29.69"/><path fill="#fac9c9" d="m195.54,199.93l18.26-19.79s11.66-6.09,17.24,24.86c5.58,30.95-1.01,25.37-6.59,24.86-5.58-.51-25.86-7.61-25.86-7.61l-3.04-22.33Z"/><path fill="#f90000" d="m202.6,222.45l-2.87.74-14.86,3.82-59.47,15.27c-5.03,1.29-10.19-1.57-11.76-6.52-.31-.98-.46-1.98-.46-2.96,0-4.16,2.67-8.01,6.85-9.33l58.63-18.48,13.79-4.35,2.99-.94c10.26,1.75,12.8,16.47,7.17,22.75Z"/><path fill="#ff9797" d="m109.32,324.76s-36.01-74.59-34.99-84.23c.77-7.31,16.69-29.78,24.35-40.22,2.41-3.29,6.6-4.75,10.54-3.69l23.44,6.36s14.98.35,23.28-1.55c3.9-.89,7.73,2.07,7.69,6.08s-2.86,9.38-13.22,15.27c-22.31,12.69-14.71,36.54-5.58,57.85,9.13,21.31,25.36,46.68,12.68,58.36-12.68,11.67-38.54,6.6-48.18-14.21Z"/><path fill="#ff9797" d="M101.72 230.89l23.59-18.79c2.34-1.87 5.52-2.3 8.27-1.13l19.05 8.08c1.42.6 2.58 1.7 3.26 3.09l8.32 17.02c.91 1.86 1.03 4 .34 5.95l-1.97 5.58 2.3 11.11c.46 2.22-.32 4.52-2.05 6l-.76.65s-3.55 16.75-16.23 19.79c-12.68 3.04-44.12-57.34-44.12-57.34zM320.51 449.73s-19.96-38.99-37.54-39.47c-17.58-.48-27.09 6.66-38.5 11.89-11.41 5.23-23.29 3.33-24.71 8.56-1.63 5.98 2.38 24.25 33.27 16.64 30.89-7.61 37.07 34.71 54.65 33.76 17.58-.95 20.44-18.55 12.83-31.38z"/><path fill="#f90000" d="m188.38,491.95c-17.66,0-29.3-4.95-31.93-13.58-2.05-6.73,1.79-14.86,10.83-22.9,1.92-1.7,4.03-3.38,6.29-4.98,1.4-1,2.91-2,4.47-2.98,8.85-5.54,19.58-10.31,31.02-13.81,10.29-3.15,20.79-5.13,30.35-5.74h.03c2-.13,3.95-.19,5.8-.2h.52c5.76,0,10.96.54,15.46,1.61,9,2.16,14.67,6.29,16.4,11.96,2.18,7.13-2.2,15.72-12.33,24.19-9.91,8.29-24.22,15.56-40.28,20.46-12.72,3.89-25.39,5.94-36.64,5.94Z"/><path d="m245.76,428.73c5.68,0,10.83.54,15.24,1.59,8.32,1.99,14.03,5.81,15.71,11.31,4.25,13.94-19.02,33.4-51.98,43.47-13.03,3.98-25.63,5.9-36.36,5.9-16.41,0-28.45-4.48-31.02-12.91-2.01-6.6,2.13-14.42,10.55-21.91,1.87-1.66,3.94-3.3,6.21-4.91,1.4-1,2.88-1.98,4.42-2.95,8.49-5.31,19.02-10.11,30.8-13.7,10.59-3.24,20.89-5.11,30.14-5.7h0c1.97-.12,3.9-.19,5.77-.19h.15c.12,0,.25,0,.37,0m0-1.9h-.38s-.14,0-.14,0c-1.86,0-3.82.07-5.83.19h-.07c-9.64.61-20.21,2.61-30.57,5.78-11.52,3.52-22.33,8.33-31.25,13.91-1.58.99-3.1,2-4.52,3.01-2.28,1.62-4.43,3.31-6.37,5.04-9.33,8.3-13.27,16.78-11.11,23.88,2.76,9.06,14.73,14.26,32.84,14.26,11.34,0,24.11-2.07,36.92-5.98,16.18-4.94,30.6-12.27,40.61-20.64,10.44-8.73,14.93-17.68,12.63-25.2-1.83-6.01-7.74-10.37-17.09-12.61-4.57-1.09-9.85-1.64-15.68-1.64h0Z"/><path fill="#686868" d="m221.24,470.52c-26.57,8.34-50.88,5.74-54.31-5.81-.78-2.65-.4-5.55.98-8.54,1.87-1.66,3.94-3.3,6.21-4.91,1.4-1,2.88-1.98,4.42-2.95,8.49-5.31,19.02-10.11,30.8-13.7,10.59-3.24,20.89-5.11,30.14-5.7h0c1.97-.12,3.9-.19,5.77-.19h.15c5.71.07,10.91.67,15.41,1.76,1.1,1.19,1.9,2.53,2.34,4.03,3.43,11.55-15.33,27.67-41.9,36.01Z"/><path fill="#ff9696" d="m214.97,462.29c-20.42,6.24-39.11,4.29-41.75-4.34-.63-2.07-.28-4.34.9-6.68,9.12-6.48,21.31-12.4,35.22-16.65,10.59-3.24,20.89-5.11,30.14-5.7h0c4.04,1.33,6.8,3.5,7.69,6.43,2.64,8.64-11.78,20.69-32.2,26.93Z"/><path fill="#f90000" d="m184.47,485.97c-14.74,0-34.69-12.52-50.82-31.91-10.45-12.55-17.92-26.33-21.05-38.79-3.19-12.7-1.49-22.57,4.78-27.79,3.04-2.54,6.97-3.82,11.67-3.82,14.74,0,34.69,12.52,50.82,31.91,10.45,12.55,17.92,26.33,21.05,38.79,3.19,12.7,1.49,22.57-4.78,27.79-3.05,2.54-6.97,3.82-11.67,3.82Z"/><path d="m129.05,384.61c13.96,0,33.76,11.94,50.09,31.56,21.41,25.74,28.76,54.95,16.4,65.24-2.93,2.44-6.72,3.6-11.06,3.6-13.96,0-33.76-11.94-50.09-31.56-21.41-25.74-28.76-54.95-16.4-65.24,2.93-2.44,6.72-3.6,11.06-3.6m0-1.9v1.9-1.9h0c-4.93,0-9.06,1.36-12.28,4.04-6.57,5.47-8.38,15.68-5.09,28.75,3.17,12.59,10.71,26.5,21.25,39.16,16.3,19.59,36.53,32.25,51.55,32.25,4.93,0,9.06-1.36,12.28-4.04,6.57-5.47,8.38-15.68,5.09-28.75-3.17-12.59-10.71-26.5-21.25-39.16-16.3-19.59-36.53-32.25-51.54-32.25h0Z"/><path fill="#ff9797" d="m277.74,445.45s-53.7,22.35-61.78,24.25-34.69-5.23-51.8-.48c-17.11,4.76-2.85,20.45,1.9,23.3,0,0-5.7,9.51,12.83,18.55,0,0-3.8,10.94,31.84,14.27,0,0-5.23,9.51,26.14,15.22,31.37,5.71,35.17,4.76,35.17,4.76,0,0,38.5-9.51,57.03-22.82,18.53-13.31,23.63-66.4-7.6-70.38s-43.72-6.66-43.72-6.66Z"/><path fill="#ff9797" d="m461.04,561h35.43c6.43-5.07,12.02-11.17,16.51-18.05v-69.07c-3.32-2.61-7.19-4.57-11.44-5.7l-46.55-12.33-43.55-11.54-3.38-.89-.47-.12-.32-.08-2.08-.56-4.39-1.16-.7-.19-110.79-29.35-6.35-1.68,5.78,37.17,3.65,23.46h0s8.62,55.4,8.62,55.4c3.46,1.97,6.88,3.92,10.27,5.83.02.01.05.03.08.05,19.57,11.07,38.07,21.07,57.84,28.83h91.83Z"/><path fill="#ff9797" d="M461.04 561h17.69c13.9-2.73 25.9-10.37 34.25-20.95v-211.89c-4.79-21.92-21.83-38.89-43.17-43.98-1.96-.47-3.96-.84-5.98-1.09h0c-2.43-.32-4.9-.48-7.41-.48-1.33 0-2.66.05-4.01.14-2.49.17-4.93.49-7.31.97-4.9.96-9.56 2.53-13.91 4.63-15.78 7.6-27.44 22.1-31.37 39.33 0 .02-.02.05-.02.08-1.22 5.38-1.69 11.03-1.3 16.81l6.69 98.08v.14s4.46 65.25 4.46 65.25c1.82 26.73 21.47 48 46.55 52.97h4.84zM157.5 338.93l-3.37 2.57-15.93 12.14-1.7 1.29h0s-37.97 28.96-37.97 28.96l-1.09.83-30.08 22.95-2.55 1.94-21.09 16.08c-12.29 9.37-27.48 11.84-41.16 8.27v-94.59l53.57-30.03 12.22-6.85 24.28-13.6.04-.02 11.99-6.72 20.04-11.23.94 1.95 1.82 3.78 21.69 44.98.78 1.62 7.56 15.68z"/><path fill="#ff8383" d="m199.72,223.19l-14.86,3.82c1.18-3.21,2.79-9.16,1.04-14.39-1.45-4.35-4.72-6.55-7.26-7.63l13.79-4.35c2.9,1.25,8.1,4.31,9.19,10.45.92,5.22-.57,9.52-1.9,12.09Z"/><path fill="none" stroke="#000" stroke-linecap="round" stroke-linejoin="round" stroke-width="1.9" d="M152.43 219.22l-16.96-7.42c-4.53-1.98-9.79-1.24-13.6 1.91l-20.16 16.68M162.58 250.68l-14.7-12.94c-3.8-3.34-9.24-4.07-13.78-1.83l-18.68 9.19M162.58 267.93l-9.33-10.94c-3.3-3.87-8.5-5.57-13.45-4.38l-15.26 3.65M152.43 297.07s-8.11-20-16.23-32.18M140.03 270.43c3.54 1.81 7.98 1.73 11.46-.21"/><line x1="92.63" x2="106.79" y1="288.77" y2="319.69" fill="none" stroke="#000" stroke-linecap="round" stroke-linejoin="round" stroke-width="1.9"/><line x1="157.74" x2="51.75" y1="339.17" y2="419.53" fill="#ff8383"/><path fill="none" stroke="#000" stroke-linecap="round" stroke-linejoin="round" stroke-width="1.9" d="M165.81 492.29l31.43 9.99c5.9 1.87 12.15 2.37 18.27 1.46l44.87-6.7M178.65 510.83l23.47 6.14c4.9 1.28 10 1.66 15.04 1.12l45.13-4.88M210.49 525.1l23.5 2.31c3.65.36 7.32.31 10.96-.14l24.94-3.12"/><line x1="311.24" x2="331.2" y1="532.23" y2="522.25" fill="none" stroke="#000" stroke-linecap="round" stroke-linejoin="round" stroke-width="1.9"/><path fill="none" stroke="#000" stroke-linecap="round" stroke-linejoin="round" stroke-width="1.26" d="m408.01,443.41c16.56-1.45,33.3-.81,49.7,1.89"/><path fill="#575757" d="m228.79,94.02s6.18,18.99,25.19,22.79c19.01,3.8,28.99-5.06,28.99-5.06,0,0,3.8,50.55,31.84,11.3,0,0-12.36-46.75-39.45-46.12-27.09.63-46.57,17.09-46.57,17.09Z"/><path fill="#575757" d="m236.06,99.95s-13.93,24.46-26.29,40.92c0,0-5.23-7.6,5.23-27.22,10.46-19.62,17.41-19.17,21.06-13.7Z"/><path fill="#d8b8b8" d="m512.98,313.41v118.34c-20.54,10.58-40.85,14.81-58.47,15.86-17.25,1.03-31.92-.97-41.7-3.01-.47-.1-.93-.19-1.37-.29-2.44-.53-4.53-1.06-6.24-1.52-2.03-.55-3.52-1.01-4.4-1.3-.31-.1-.55-.19-.71-.24-.15-.05-.22-.08-.22-.08l-9.01-111.94-.02-.28c2.26-.24,4.45-.51,6.59-.83.79-.11,1.58-.24,2.36-.37,8.53-1.39,16.1-3.38,22.79-5.76,9.75-3.47,17.66-7.75,24.01-12.2,14.63-10.23,21.07-21.3,22.97-25.11.09-.19.18-.35.24-.5.28-.57.4-.88.4-.88,18.7,4.26,32.54,15.7,42.77,30.11Z"/><line x1="400.11" x2="393.93" y1="441.41" y2="365.8" fill="none" stroke="#000" stroke-linecap="round" stroke-linejoin="round" stroke-width="1.9"/><path fill="#ff8383" d="m300.71-8.19c-4.16,5.64-9.14,11.64-15.09,17.79-17.54,18.14-39.98,34.18-66.71,47.71-33.39,16.89-73.6,29.85-119.51,38.55-19.41,3.67-37.81,5.51-55.14,5.51-14.67,0-28.57-1.31-41.69-3.93v-1.29c10.06,2.03,20.57,3.27,31.55,3.75h0c2.31.1,4.64.16,6.99.19,14.37.19,29.49-.91,45.34-3.3h0c1.34-.2,2.67-.41,4.02-.63h0c2.87-.47,5.77-.98,8.69-1.54,10.42-1.97,20.55-4.17,30.36-6.58,2.02-.49,4.02-.99,6.01-1.51h0c15.94-4.1,31.02-8.79,45.21-14.05h0c.4-.15.79-.29,1.18-.44h0c12.86-4.81,24.98-10.08,36.31-15.81,1.73-.87,3.44-1.76,5.13-2.65h0c1.18-.63,2.35-1.26,3.51-1.9h0c16.51-9.01,31.23-19.03,43.98-29.96,1.62-1.38,3.21-2.79,4.76-4.21,3.12-2.84,6.12-5.74,8.98-8.7,5.69-5.88,10.48-11.59,14.51-17h1.57Z"/><circle cx="37.73" cy="95.47" r="5.7" fill="#ff8383"/><circle cx="87.64" cy="91.19" r="5.7" fill="#ff8383"/><circle cx="131.36" cy="82.63" r="5.7" fill="#ff8383"/><circle cx="179.36" cy="66.94" r="5.7" fill="#ff8383"/><circle cx="222.61" cy="47.92" r="5.7" fill="#ff8383"/><circle cx="270.13" cy="16.06" r="5.7" fill="#ff8383"/><line x1="227.12" x2="214.29" y1="190.34" y2="197.47" fill="none" stroke="#000" stroke-linecap="round" stroke-linejoin="round" stroke-width="1.26"/><line x1="229.5" x2="216.19" y1="197.47" y2="200.8" fill="none" stroke="#000" stroke-linecap="round" stroke-linejoin="round" stroke-width="1.26"/><line x1="232.82" x2="214.29" y1="218.39" y2="216.01" fill="none" stroke="#000" stroke-linecap="round" stroke-linejoin="round" stroke-width="1.26"/><line x1="363.28" x2="479.48" y1="431.66" y2="461.38" fill="none" stroke="#000" stroke-linecap="round" stroke-linejoin="round" stroke-width="1.9"/></g><g transform="translate(312.32 143.73)"><rect width="81.44" height="81.44" x="71.01" y="56.37" fill="#f2f2f2" rx="12.49" ry="12.49" transform="rotate(11.8 111.749 97.11)"/><path d="m130.96,143.11l-55.28-11.55c-6.95-1.45-11.42-8.28-9.96-15.23l11.55-55.28c1.45-6.95,8.28-11.42,15.23-9.96l55.28,11.55c6.95,1.45,11.42,8.28,9.96,15.23l-11.55,55.28c-1.45,6.95-8.28,11.42-15.23,9.96Zm-38.62-91.27c-6.53-1.37-12.96,2.84-14.33,9.37l-11.55,55.28c-1.37,6.53,2.84,12.96,9.37,14.33l55.28,11.55c6.53,1.37,12.96-2.84,14.33-9.37l11.55-55.28c1.37-6.53-2.84-12.96-9.37-14.33l-55.28-11.55Z"/><path fill="#363636" d="m127.22,100.9c-2.67,1.56-5.82,2.07-8.84,1.45-.67-.14-1.32-.34-1.93-.58-.05-.07-.12-.13-.18-.21,3.73,4.69,5.19,10.8,3.96,16.66-.29,1.37-1.62,2.24-2.99,1.96l14.84,3.1c1.37.29,2.71-.59,2.99-1.96,1.62-7.76-1.45-15.75-7.85-20.43Z"/><path fill="#ffd8d8" d="m103.53,99.25c-6.83-1.43-11.21-8.12-9.78-14.95,1.43-6.83,8.12-11.21,14.95-9.78,6.83,1.43,11.21,8.12,9.78,14.95-1.43,6.83-8.12,11.21-14.95,9.78Z"/><path fill="#d8b8b8" d="m103.53,99.25c-6.83-1.43-11.21-8.12-9.78-14.95,1.43-6.83,8.12-11.21,14.95-9.78,6.83,1.43,11.21,8.12,9.78,14.95-1.43,6.83-8.12,11.21-14.95,9.78Z"/><path fill="#d8b8b8" d="m112.37,97.8c-2.67,1.56-5.82,2.07-8.84,1.45-3.02-.64-5.7-2.37-7.53-4.87-7.73,1.73-13.74,7.82-15.37,15.58-.29,1.37.59,2.71,1.96,2.99l34.63,7.24c1.37.29,2.71-.59,2.99-1.96,1.62-7.76-1.45-15.75-7.85-20.43Z"/><path fill="#363636" d="m123.54,77.62c-2.8-.58-5.55-.15-7.95.98.72.83,1.34,1.76,1.82,2.75.43.85.75,1.75.98,2.67.06.25.12.49.16.74.12.65.18,1.3.19,1.98,0,.16,0,.32-.01.48-.02.74-.08,1.5-.24,2.26s-.41,1.52-.7,2.22c-.05.1-.08.22-.13.32-.27.59-.58,1.15-.94,1.69-.14.21-.27.43-.42.63-.3.4-.63.78-.97,1.14-.86.93-1.86,1.7-2.95,2.33,1.55,1.13,2.92,2.47,4.07,3.97.62.24,1.26.44,1.93.58,6.83,1.43,13.53-2.95,14.95-9.78,1.43-6.83-2.95-13.53-9.78-14.95Z"/><circle cx="497.33" cy="70.41" r="30.81" fill="#f2f2f2"/><path fill="#f90000" d="m493.86,84.62c-1.17-.28-2.18-1.02-2.81-2.05l-7.51-12.39c-2.97-4.88-1.41-11.24,3.47-14.21,4.38-2.66,10.05-1.71,13.33,2.23,5.27-2.21,11.33.27,13.54,5.54,1.98,4.73.2,10.2-4.19,12.85l-12.39,7.51c-1.03.62-2.27.81-3.44.52Z"/><rect width="156.18" height="54.3" x="709.18" y="116.61" fill="#ff8383" rx="27.15" ry="27.15"/><path d="m838.22,171.28h-101.88c-15.18,0-27.53-12.34-27.53-27.52,0-15.18,12.35-27.53,27.53-27.53h101.88c15.18,0,27.53,12.34,27.53,27.52,0,15.18-12.35,27.53-27.53,27.53Zm-101.89-54.29c-14.76,0-26.77,12.01-26.77,26.77,0,14.76,12.01,26.77,26.77,26.77h101.88c14.76,0,26.77-12.02,26.77-26.77,0-14.76-12.01-26.77-26.77-26.77h-101.88Z"/><path fill="#f90000" d="M740.98 158.39c-1.21 0-2.36-.47-3.22-1.31l-10.28-10.21c-4.06-4.02-4.09-10.57-.07-14.63 3.61-3.64 9.34-4.09 13.47-1.06 4.58-3.42 11.06-2.48 14.47 2.1 3.07 4.11 2.66 9.84-.95 13.48l-10.21 10.28c-.85.86-2 1.34-3.21 1.34zM787.35 158.38c-1.21 0-2.36-.47-3.22-1.31l-10.28-10.21c-4.06-4.02-4.09-10.57-.07-14.63 3.61-3.64 9.34-4.09 13.47-1.06 4.58-3.42 11.06-2.48 14.47 2.1 3.07 4.11 2.66 9.84-.95 13.48l-10.21 10.28c-.85.86-2 1.34-3.21 1.34zM833.71 158.38c-1.21 0-2.36-.47-3.22-1.31l-10.28-10.21c-4.06-4.02-4.09-10.57-.07-14.63 3.61-3.64 9.34-4.09 13.47-1.06 4.58-3.42 11.06-2.48 14.47 2.1 3.07 4.11 2.66 9.84-.95 13.48l-10.21 10.28c-.85.86-2 1.34-3.21 1.34zM792.67 275.72c-.84-.21-1.56-.75-2-1.5l-5.29-8.97c-2.09-3.53-.92-8.09 2.61-10.18 3.17-1.88 7.24-1.15 9.56 1.71 3.8-1.54 8.14.29 9.68 4.09 1.39 3.41.06 7.33-3.11 9.2l-8.97 5.3c-.75.44-1.64.57-2.48.35z"/><path d="M785.19 248.39c-.05 0-.11-.03-.13-.08l-2.66-4.41c-.04-.07-.02-.17.05-.22.08-.05.17-.02.22.05l2.66 4.41c.04.07.02.17-.05.22-.03.02-.05.02-.08.02zM800.38 246.32s-.03 0-.04 0c-.08-.02-.14-.11-.11-.19l1.23-5c.02-.08.11-.14.19-.11.08.02.14.11.11.19l-1.23 5c-.02.07-.08.12-.15.12zM812.59 255.6c-.05 0-.1-.03-.13-.08-.04-.07-.02-.17.05-.22l4.41-2.66c.08-.05.17-.02.22.05.04.07.02.17-.05.22l-4.41 2.66s-.05.02-.08.02zM819.66 272.03s-.03 0-.04 0l-5-1.23c-.08-.02-.14-.11-.11-.19.02-.08.1-.14.19-.11l5 1.23c.08.02.14.11.11.19-.02.07-.08.12-.15.12zM808.04 287.41c-.05 0-.11-.03-.13-.08l-2.66-4.41c-.04-.07-.02-.17.05-.22.08-.05.17-.02.22.05l2.66 4.41c.04.07.02.17-.05.22-.03.02-.05.02-.08.02zM788.94 290.07s-.03 0-.04 0c-.08-.02-.14-.11-.11-.19l.49-2.01c.02-.08.11-.14.19-.11.08.02.14.11.11.19l-.49 2.01c-.02.07-.08.12-.15.12z"/><path d="M789.44 288.07s-.03 0-.04 0c-.08-.02-.14-.11-.11-.19l.74-2.99c.02-.08.1-.14.19-.11.08.02.14.11.11.19l-.74 2.99c-.02.07-.08.12-.15.12zM773.56 278.45c-.05 0-.1-.03-.13-.08-.04-.07-.02-.17.05-.22l2.2-1.33c.07-.04.17-.02.22.05s.02.17-.05.22l-2.2 1.33s-.05.02-.08.02z"/><path d="M775.77 277.12c-.05 0-.11-.03-.13-.08-.04-.07-.02-.17.05-.22l2.2-1.33c.08-.05.17-.02.22.05.04.07.02.17-.05.22l-2.2 1.33s-.05.02-.08.02zM775.9 260.59s-.03 0-.04 0l-3.93-.97c-.08-.02-.14-.11-.11-.19.02-.08.11-.14.19-.11l3.93.97c.08.02.14.11.11.19-.02.07-.08.12-.15.12zM792.44 245.86c-.08 0-.14-.06-.15-.13l-.33-2.07c-.01-.09.04-.17.13-.18.08-.01.17.04.18.13l.33 2.07c.01.09-.04.17-.13.18 0 0-.02 0-.03 0zM807.3 249.66s-.06 0-.09-.03c-.07-.05-.09-.15-.03-.22l2.57-3.54c.05-.07.15-.09.22-.03.07.05.09.15.03.22l-2.57 3.54s-.08.06-.13.06zM815.11 262.86c-.08 0-.14-.06-.15-.13-.01-.09.04-.17.13-.18l2.54-.4c.08-.01.17.04.18.13.01.09-.04.17-.13.18l-2.54.4s-.02 0-.03 0zM813 278.94s-.06 0-.09-.03l-1.69-1.22c-.07-.05-.09-.15-.03-.22.05-.07.15-.09.22-.03l1.69 1.22c.07.05.09.15.03.22-.03.04-.08.06-.13.06zM798.69 289.16c-.08 0-.14-.06-.15-.13l-.58-3.63c-.01-.09.04-.17.13-.18.08-.01.17.04.18.13l.58 3.63c.01.09-.04.17-.13.18 0 0-.02 0-.03 0zM782.33 283.01s-.06 0-.09-.03c-.07-.05-.09-.15-.03-.22l.93-1.28c.05-.07.15-.09.22-.03.07.05.09.15.03.22l-.93 1.28s-.08.06-.13.06zM772.38 269.02c-.08 0-.14-.06-.15-.13-.01-.09.04-.17.13-.18l3.07-.49c.08-.01.17.04.18.13.01.09-.04.17-.13.18l-3.07.49s-.02 0-.03 0zM779.25 253.68s-.06 0-.09-.03l-2.29-1.66c-.07-.05-.09-.15-.03-.22.05-.07.15-.09.22-.03l2.29 1.66c.07.05.09.15.03.22-.03.04-.08.06-.13.06zM785.19 248.39c-.05 0-.11-.03-.13-.08l-2.66-4.41c-.04-.07-.02-.17.05-.22.08-.05.17-.02.22.05l2.66 4.41c.04.07.02.17-.05.22-.03.02-.05.02-.08.02zM800.38 246.32s-.03 0-.04 0c-.08-.02-.14-.11-.11-.19l1.23-5c.02-.08.11-.14.19-.11.08.02.14.11.11.19l-1.23 5c-.02.07-.08.12-.15.12zM812.59 255.6c-.05 0-.1-.03-.13-.08-.04-.07-.02-.17.05-.22l4.41-2.66c.08-.05.17-.02.22.05.04.07.02.17-.05.22l-4.41 2.66s-.05.02-.08.02zM819.66 272.03s-.03 0-.04 0l-5-1.23c-.08-.02-.14-.11-.11-.19.02-.08.1-.14.19-.11l5 1.23c.08.02.14.11.11.19-.02.07-.08.12-.15.12zM808.04 287.41c-.05 0-.11-.03-.13-.08l-2.66-4.41c-.04-.07-.02-.17.05-.22.08-.05.17-.02.22.05l2.66 4.41c.04.07.02.17-.05.22-.03.02-.05.02-.08.02zM788.94 290.07s-.03 0-.04 0c-.08-.02-.14-.11-.11-.19l1.23-5c.02-.08.1-.14.19-.11.08.02.14.11.11.19l-1.23 5c-.02.07-.08.12-.15.12z"/><path d="M773.56 278.45c-.05 0-.11-.03-.13-.08-.04-.07-.02-.17.05-.22l4.41-2.66c.07-.04.17-.02.22.05s.02.17-.05.22l-4.41 2.66s-.05.02-.08.02zM775.9 260.59s-.03 0-.04 0l-5-1.23c-.08-.02-.14-.11-.11-.19.02-.08.1-.14.19-.11l5 1.23c.08.02.14.11.11.19-.02.07-.08.12-.15.12z"/><rect width="72.9" height="39.35" x="774.76" y="376.58" fill="#f90000" rx="9.14" ry="9.14"/><path fill="#ff8383" d="m814.69,406.7h-15.66c-2.88,0-5.22-2.34-5.22-5.22v-10.44c0-2.88,2.34-5.22,5.22-5.22h15.66c2.88,0,5.22,2.34,5.22,5.22v10.44c0,2.88-2.34,5.22-5.22,5.22Z"/><path fill="#363636" d="m828.43,388.51c-.43-.86-1.47-1.21-2.33-.78,0,0,0,0,0,0l-6.2,3.1c0,.07.02.13.02.19v10.44c0,.07-.02.13-.02.19l6.2,3.1c.86.43,1.91.08,2.33-.78.12-.24.18-.51.18-.78v-13.92c0-.27-.06-.54-.18-.78Z"/><path fill="#fff" d="m812.3,396.85l-7.93,4.05c-.63.32-1.37-.14-1.37-.84v-7.94c0-.7.73-1.15,1.36-.85l7.94,3.89c.7.34.71,1.33.01,1.69Z"/><path fill="#f90000" d="m160.84,417.94c-.65.38-1.43.48-2.15.28l-8.73-2.38c-3.44-.93-5.48-4.48-4.54-7.92.84-3.09,3.81-5.1,6.99-4.72,1.43-3.27,5.24-4.75,8.51-3.32,2.93,1.29,4.48,4.53,3.63,7.62l-2.38,8.73c-.2.73-.68,1.34-1.33,1.72Z"/><path d="M139.52 405.49s-.02 0-.03 0l-4.33-1.13c-.07-.02-.12-.09-.1-.17.02-.07.09-.12.17-.1l4.33 1.13c.07.02.12.09.1.17-.02.06-.07.1-.13.1zM147.74 395s-.09-.02-.12-.07l-2.26-3.86c-.04-.07-.02-.15.05-.19.06-.04.15-.02.19.05l2.26 3.86c.04.07.02.15-.05.19-.02.01-.05.02-.07.02zM160.96 393.39s-.02 0-.03 0c-.07-.02-.12-.09-.1-.17l1.13-4.33c.02-.07.09-.12.17-.1.07.02.12.09.1.17l-1.13 4.33c-.02.06-.07.1-.13.1zM171.45 401.6s-.09-.02-.12-.07c-.04-.07-.02-.15.05-.19l3.86-2.26c.06-.04.15-.02.19.05.04.07.02.15-.05.19l-3.86 2.26s-.05.02-.07.02zM177.39 415.95s-.02 0-.03 0l-4.33-1.13c-.07-.02-.12-.09-.1-.17.02-.07.09-.12.17-.1l4.33 1.13c.07.02.12.09.1.17-.02.06-.07.1-.13.1zM167.11 429.17s-.09-.02-.12-.07l-.91-1.55c-.04-.07-.02-.15.05-.19.06-.04.15-.02.19.05l.91 1.55c.04.07.02.15-.05.19-.02.01-.05.02-.07.02z"/><path d="M166.21 427.63s-.09-.02-.12-.07l-1.35-2.31c-.04-.07-.02-.15.05-.19.06-.04.15-.02.19.05l1.35 2.31c.04.07.02.15-.05.19-.02.01-.05.02-.07.02zM150.5 431.25s-.02 0-.03 0c-.07-.02-.12-.09-.1-.17l.57-2.16c.02-.07.09-.12.17-.1.07.02.12.09.1.17l-.57 2.16c-.02.06-.07.1-.13.1z"/><path d="M151.06 429.09s-.02 0-.03 0c-.07-.02-.12-.09-.1-.17l.57-2.16c.02-.07.09-.12.17-.1.07.02.12.09.1.17l-.57 2.16c-.02.06-.07.1-.13.1zM138.1 420.49s-.09-.02-.12-.07c-.04-.07-.02-.15.05-.19l3.04-1.78c.06-.04.15-.02.19.05.04.07.02.15-.05.19l-3.04 1.78s-.05.02-.07.02zM142.51 399.52s-.06 0-.08-.03l-1.46-1.09c-.06-.05-.07-.13-.03-.19.04-.06.13-.07.19-.03l1.46 1.09c.06.05.07.13.03.19-.03.04-.07.05-.11.05zM154.07 392.89c-.07 0-.12-.05-.13-.12l-.55-3.76c-.01-.07.04-.14.12-.15.08-.01.14.04.15.12l.55 3.76c.01.07-.04.14-.12.15 0 0-.01 0-.02 0zM166.93 396.37s-.06 0-.08-.03c-.06-.05-.07-.13-.03-.19l1.34-1.79c.04-.06.13-.07.19-.03.06.05.07.13.03.19l-1.34 1.79s-.07.05-.11.05zM173.56 407.93c-.07 0-.12-.05-.13-.12-.01-.07.04-.14.12-.15l1.79-.26c.08-.01.14.04.15.12s-.04.14-.12.15l-1.79.26s-.01 0-.02 0zM172.63 422.7s-.06 0-.08-.03l-2.56-1.91c-.06-.05-.07-.13-.03-.19.05-.06.13-.07.19-.03l2.56 1.91c.06.05.07.13.03.19-.03.04-.07.05-.11.05zM158.72 428.78c-.07 0-.12-.05-.13-.12l-.2-1.36c-.01-.07.04-.14.12-.15.08-.01.14.04.15.12l.2 1.36c.01.07-.04.14-.12.15 0 0-.01 0-.02 0zM144.05 426.1s-.06 0-.08-.03c-.06-.05-.07-.13-.03-.19l1.61-2.16c.05-.06.13-.07.19-.03.06.05.07.13.03.19l-1.61 2.16s-.07.05-.11.05zM136.59 412.74c-.07 0-.12-.05-.13-.12-.01-.07.04-.14.12-.15l2.44-.35c.08-.01.14.04.15.12.01.07-.04.14-.12.15l-2.44.35s-.01 0-.02 0zM139.52 405.49s-.02 0-.03 0l-4.33-1.13c-.07-.02-.12-.09-.1-.17.02-.07.09-.12.17-.1l4.33 1.13c.07.02.12.09.1.17-.02.06-.07.1-.13.1zM147.74 395s-.09-.02-.12-.07l-2.26-3.86c-.04-.07-.02-.15.05-.19.06-.04.15-.02.19.05l2.26 3.86c.04.07.02.15-.05.19-.02.01-.05.02-.07.02zM160.96 393.39s-.02 0-.03 0c-.07-.02-.12-.09-.1-.17l1.13-4.33c.02-.07.09-.12.17-.1.07.02.12.09.1.17l-1.13 4.33c-.02.06-.07.1-.13.1zM171.45 401.6s-.09-.02-.12-.07c-.04-.07-.02-.15.05-.19l3.86-2.26c.06-.04.15-.02.19.05.04.07.02.15-.05.19l-3.86 2.26s-.05.02-.07.02zM177.39 415.95s-.02 0-.03 0l-4.33-1.13c-.07-.02-.12-.09-.1-.17.02-.07.09-.12.17-.1l4.33 1.13c.07.02.12.09.1.17-.02.06-.07.1-.13.1zM167.11 429.17s-.09-.02-.12-.07l-2.26-3.86c-.04-.07-.02-.15.05-.19.06-.04.15-.02.19.05l2.26 3.86c.04.07.02.15-.05.19-.02.01-.05.02-.07.02z"/><path d="M150.5 431.25s-.02 0-.03 0c-.07-.02-.12-.09-.1-.17l1.13-4.33c.02-.07.09-.12.17-.1.07.02.12.09.1.17l-1.13 4.33c-.02.06-.07.1-.13.1zM137.28 420.98s-.09-.02-.12-.07c-.04-.07-.02-.15.05-.19l3.86-2.26c.06-.04.15-.02.19.05.04.07.02.15-.05.19l-3.86 2.26s-.05.02-.07.02z"/></g><g transform="translate(666.389 166.068) scale(.73578)"><path fill="#fac9c9" d="m253.76,889.06l-3.15,59.8s.9,20.68,34.17,24.73c33.27,4.05,40.47-17.99,40.47-17.99l17.6-60.93-89.09-5.61Z"/><rect width="69.17" height="191.75" x="233.91" y="67.93" fill="#fac9c9" rx="34.58" ry="34.58" transform="rotate(-5.05 268.605 163.847)"/><path fill="#fac9c9" d="M303.84 364.96c-2.4.49-4.78.73-7.14.73-.49 0-.98 0-1.46-.03-15.78-.66-29.69-11.94-33.02-28.1l-17.32-84.14-4.56-22.17c-3.93-19.06 8.35-37.69 27.4-41.61 19.06-3.92 37.69 8.35 41.61 27.41l2.23 10.83 15.74 76.5 3.91 18.98c3.92 19.06-8.34 37.69-27.4 41.61zM215.39 73.55s-9.74 6.62-5.7 16.06c4.05 9.44 26.53 8.54 29.68 0s-2.25-11.69-2.25-11.69l-21.73-4.37zM287.48 54.09s-9.49-21.36-31.82-25.87c-2.91-.59-5.93.02-8.4 1.66-5.19 3.46-13.57 10.23-11.04 16.56 3.6 8.99 17.99 31.02 35.07 22.93 17.09-8.09 16.19-15.29 16.19-15.29z"/><path fill="#575757" d="m381.34,197.45s16.75-5.32,32.03,3.67c15.29,8.99,28.78,39.12,4.95,55.31-23.83,16.19-36.98-58.98-36.98-58.98Z"/><path fill="#fac9c9" d="m389.1,700.66l35.97-10.34s23.83-10.79,17.54-57.1c-6.29-46.31-53.51-31.02-53.51-31.02v98.47Z"/><path d="m419.26,722.82c-.12,0-.25-.02-.37-.05-1.63-.48-1.47-2.83-1.39-4.09l.02-.28c.21-3.56.76-7.17,1.65-10.74.89-3.57,2.1-7.07,3.62-10.38.75-1.64,1.58-3.25,2.46-4.78.11-.19.4-.59.76-1.09.59-.82,1.83-2.51,1.87-2.88,0,0,0,.02,0,.06l.69-.19s0,0,0,0c1.84,6.77,1.66,14.17-.5,20.84-1.23,3.79-3.07,7.32-5.48,10.49-.11.14-.24.33-.38.53-.73,1.05-1.79,2.57-2.95,2.57Zm8.88-33.24c-.31.51-.81,1.22-1.55,2.24-.34.47-.63.87-.72,1.02-.87,1.52-1.69,3.1-2.43,4.72-1.49,3.27-2.7,6.72-3.57,10.25-.87,3.53-1.42,7.09-1.63,10.61l-.02.29c-.08,1.14-.21,3.04.87,3.36.81.24,1.89-1.31,2.53-2.24.15-.21.28-.41.4-.56,2.36-3.11,4.17-6.56,5.37-10.27h0c2.01-6.21,2.27-13.06.75-19.42Z"/><path fill="#ff9797" d="m507.58,619.11l-18.42.61s2.91,6.36,15.86,16.82l-2.76,79.16c.16,18.11-12.38,33.49-30.64,33.06-4.37-.1-8.66-.59-12.66-1.82-9.79-2.99-17.94-10.42-21.8-27.46-11.6-51.24-5.36-66.38-5.36-66.38l-1.14-61.12c9.63-2.73,20.13-5.39,44.75-7.03,8.48-.57,18.63-1.01,31-1.29l1.18,35.46Z"/><path fill="#ff9797" d="m422.48,690.54l34.1-9s1.42-20.63,3.27-63.99c1.76-41.43-25.97-23.43-40.41-24.75l3.05,97.74Z"/><path d="m507.58,619.11l-18.42.61s2.91,6.36,15.86,16.82l-2.76,79.16c.16,18.11-12.38,33.49-30.64,33.06-4.37-.1-8.66-.59-12.66-1.82,12.52-1.92,30.37-10.44,29.85-43.52-.45-28.53-1.07-45.43-1.53-54.75-.32-6.38-1.95-12.62-4.79-18.34l-3.74-7.52c-1.46-2.93-2.27-6.14-2.38-9.41l-.95-28.43c8.48-.57,18.63-1.01,31-1.29l1.18,35.46Z"/><rect width="25.85" height="1.16" x="426.93" y="685.56" transform="rotate(-14.96 439.916 686.206)"/><path d="M431.04 697.04l-.63-.34c3.76-6.88 5.33-14.95 4.43-22.74l.71-.08c.92 7.93-.68 16.16-4.51 23.16zM429.08 703.89l-.4-.59c7.91-5.41 14.3-13.26 17.99-22.11l.66.28c-3.74 8.97-10.22 16.94-18.25 22.42z"/><polygon fill="#ff9696" points="437.21 435.83 444.85 508.67 198.91 464.61 314.01 278.91 321.51 281.1 323.42 281.66 332.45 284.3 387.75 291.94 447.1 304.98 451.61 306.34 453.34 306.85 474.08 313.08 437.21 435.83"/><path fill="#fac9c9" d="m242.07,39.7s-20.68,1.35-20.68,15.29,22.03,23.38,27.88,21.58c5.85-1.8,9.89-1.35,12.14-14.39,0,0,.9-13.94-19.33-22.48Z"/><path fill="#575757" d="m406.95,694.39l-3.56-96.22c-.09-2.57,1.76-4.79,4.3-5.16l8.41-1.22c2.96-.43,5.64,1.8,5.75,4.79l3.56,96.22c.09,2.57-1.76,4.79-4.3,5.16l-8.41,1.22c-2.96.43-5.64-1.8-5.75-4.79Z"/><path fill="#fac9c9" d="m224.53,54.09l-9.9,7.2c-2.87,2.09-3.57,6.08-1.58,9.02,3.58,5.27,9.56,12.6,15.53,13.46,9.44,1.35,23.83,2.7,19.33-11.24-4.5-13.94-23.38-18.44-23.38-18.44Z"/><path fill="#fac9c9" d="M231.28 135.47s-13.04-28.33-11.24-46.76c1.8-18.44 36.42-43.17 53.51-27.88 17.09 15.29-7.19 75.99-42.26 74.64zM397.64 328.37c-35.57 1.91-61.15-22.93-71.49-45.86 0 0 26.08 5.4 31.47 1.35 2.88-2.16 5-2.91 7.02-5.95 1.77-2.65 3.47-7.04 5.57-15.63 0 0 3.89-7.78 14.08-10.67 2.77-.79 6-1.21 9.75-1.02 17.54.9 18.43 3.15 18.88 6.29 0 0-10.86 38.56 11.69 43.17 22.03 4.5 22.48 4.95 22.48 4.95 0 0 .9 20.68-49.46 23.38z"/><path d="m408.43,256.42s-15.74,31.47-35.52,27.43c-4.34-.89-6.91-3.08-8.26-5.95,1.77-2.65,3.47-7.04,5.57-15.63,0,0,3.89-7.78,14.08-10.67l24.14,4.83Z"/><polygon fill="#363636" points="444.85 508.67 439.55 526.73 439.23 527.85 405.73 642.06 398.87 665.46 390 695.72 342.79 894.46 253.76 889.06 275.64 695.42 278.49 643.11 285.68 554.53 222.38 488.93 221 487.5 198.91 464.61 444.85 508.67"/><path fill="#363636" d="m390.9,595.45l.45,104.32-114.8,27.58-54.33,13.21c-129.87,19.92-125.56-90.24-93.45-151.39l60.49-106.17.57-1.08,9.08-17.3,56.75,29.11,3.53,1.82h0l26.94,59-26.53,58,131.29-17.09Z"/><path fill="#fac9c9" d="m430.98,240.47c-1.74-3.64-5.2-5.96-9.17-6.64-.3-17.42-10.69-29-25.7-30.15-16.25-1.25-31.75,10.2-33.28,30.06-1.53,19.86-.76,36.12,15.49,37.37,9.1.7,21.12-3.46,30.21-10.74,5.22.52,11.27-.44,15.12-2.29,7.08-3.39,10.35-11.27,7.32-17.6Z"/><path d="m426.29,250.73c-1.38-3.62-3.86-6.87-6.99-9.15l.68-.94c3.31,2.41,5.93,5.85,7.39,9.68l-1.08.41Z"/><path fill="#fff" d="m424.55,246.16c-.86,1.62-1.72,3.25-2.57,4.87"/><rect width="5.51" height="1.16" x="420.51" y="248.01" transform="rotate(-62.13 423.302 248.597)"/><ellipse cx="391.78" cy="234.43" rx="2.57" ry="1.84" transform="rotate(-85.61 391.772 234.432)"/><ellipse cx="372.72" cy="232.34" rx="2.57" ry="1.84" transform="rotate(-85.61 372.713 232.345)"/><path d="M372.19 245.57l-.33-1.11c3.18-.94 5.91-3.16 7.49-6.07 1.58-2.92 1.94-6.41.99-9.59l1.11-.33c1.04 3.47.64 7.29-1.08 10.48-1.73 3.19-4.71 5.6-8.18 6.63zM379.66 254.9c-.18 0-.36 0-.53-.01l.05-1.16c4.72.2 9.51-2.6 11.68-6.78l1.03.53c-2.32 4.49-7.18 7.42-12.22 7.42z"/><path d="m380.42,271.76c-.72,0-1.43-.03-2.13-.08-3.27-.25-6.08-1.12-8.34-2.59l.63-.97c2.1,1.36,4.72,2.17,7.79,2.41,9.04.69,21.01-3.57,29.81-10.61l.18-.15.23.02c5.03.5,10.98-.4,14.81-2.23,6.78-3.25,9.94-10.8,7.05-16.83-1.6-3.34-4.79-5.65-8.74-6.32l-.47-.08v-.48c-.29-16.82-10.17-28.43-25.17-29.59l.09-1.16c15.5,1.19,25.75,13.04,26.23,30.25,4.11.84,7.42,3.33,9.12,6.88,3.17,6.61-.24,14.85-7.59,18.37-3.94,1.89-10.02,2.83-15.19,2.36-8.44,6.7-19.29,10.8-28.3,10.8Z"/><rect width="69.17" height="191.75" x="346.76" y="325.12" fill="#fac9c9" rx="34.58" ry="34.58" transform="rotate(-28.11 381.428 421.044)"/><path fill="#fac9c9" d="m496.3,345.29c0,4.09-.73,8.26-2.28,12.31l-27.4,71.9-21.69,56.91c-6.8,17.85-26.78,26.8-44.63,20-17.85-6.8-26.8-26.79-20-44.64l27.96-73.37,21.13-55.44c6.8-17.85,26.79-26.8,44.63-20,13.79,5.26,22.27,18.39,22.27,32.32Z"/><path fill="#ff9696" d="m327.34,304.37c-6.54,19.34-18.29,49.07-32.09,61.29-28.45,9.92-29.69-11.94-33.02-28.1l-13.76-66.88-2.2-10.67-1.35-6.58c34.9-1.93,57.79-18.03,66.68-25.55l1.29,6.27,2.58,12.55,11.87,57.68Z"/><path fill="#ff8383" d="m453.34,306.85c-1.02,2.98-2.6,5.86-4.72,8.52-5.33,6.7-13.85,11.8-24.62,14.77-7.64,2.11-16.36,3.16-26.05,3.16-6.33,0-13.08-.45-20.21-1.35-14.43-1.83-26.39-6.32-35.55-13.35-7.35-5.65-12.9-12.93-16.51-21.64-2.36-5.69-3.57-11.2-4.17-15.86l1.91.56c.62,4.39,1.79,9.49,3.95,14.68,3.49,8.4,8.87,15.42,15.96,20.86,8.89,6.82,20.55,11.18,34.64,12.97,17.81,2.25,33.14,1.66,45.56-1.76,10.4-2.87,18.6-7.76,23.69-14.15,1.97-2.47,3.44-5.16,4.4-7.92l1.73.52Z"/><path fill="#ff9696" d="m496.3,345.29c0,4.09-.73,8.26-2.28,12.31l-20.68,54.26-4.5,11.8-2.23,5.83c-14.97-25.26-45.43-37.06-58.36-41.09l1.12-2.93,3.92-10.28,16.1-42.23c6.8-17.85,26.79-26.8,44.63-20,13.79,5.26,22.27,18.39,22.27,32.32Z"/><path fill="#fac9c9" d="m332,297.79s-13.94-3.6-15.74,9.44c0,0-14.84,0-12.14,11.24,0,0-9.89.9-5.85,13.94,4.05,13.04,18.06,38.38,21.62,46.17,3.56,7.79,35.48,6.44,44.47.59,8.99-5.85,18.43-14.84,17.09-28.33l-1.12-23.66"/><path fill="#fac9c9" d="m380.34,327.19l-.64-13.58c-.28-6.04-4.85-11.01-10.84-11.81l-9.89-1.32s-6.15-10.29-16.19-11.24c-10.04-.95-10.79,8.54-10.79,8.54"/><path d="M224.33 96.93c-1.5 0-2.99-.12-4.42-.35l.19-1.14c7.36 1.22 16.86-.96 18.73-6.03.65-1.77.97-3.44.95-4.95l1.16-.02c.03 1.65-.32 3.46-1.02 5.37-1.72 4.67-8.72 7.12-15.59 7.12zM258.96 71.03c-11.1-3.11-20.16-16.6-23.27-24.37-.78-1.95-.66-4.07.36-6.3l1.06.48c-.88 1.94-.99 3.75-.34 5.39 3.03 7.57 11.81 20.69 22.51 23.68l-.31 1.12zM247.53 77.37c-3.94 0-10.36-2.31-15.62-5.78-6.54-4.32-10.45-9.7-11.03-15.15l1.15-.12c.72 6.88 6.9 11.92 10.51 14.31 6.48 4.28 13.78 6.25 16.55 5.4l.34 1.11c-.54.16-1.18.24-1.91.24z"/><path d="m237.67,85.13c-2.93,0-6.11-.36-9.18-.8-4.13-.59-8.7-4.1-13.57-10.43l.92-.71c4.61,6,9.04,9.45,12.81,9.99,6.9.98,14.4,1.58,17.76-1.51,1.3-1.19,1.87-2.85,1.74-5.05l1.16-.07c.15,2.54-.57,4.54-2.12,5.97-2.13,1.95-5.6,2.6-9.53,2.6Z"/><path fill="#fac9c9" d="m295.49,121.39s6.83-59.21,2.79-64.6c-4.05-5.4-36.56-16.55-41.37-15.29-8.54,2.25-3.6,17.54,11.69,27.88,0,0-23.83,22.03-13.04,49.01,10.79,26.98,35.34,26.24,39.93,3Z"/><path d="M253.68 98.92l-1.15-.16c2.08-15.35 12.68-26.82 15.15-29.31-9.94-6.94-16.53-17-15.4-23.62.43-2.54 1.98-4.24 4.48-4.89 2.51-.66 13.92 2.1 26.89 7.27l-.43 1.08c-11.16-4.45-23.63-7.89-26.16-7.22-2.05.54-3.27 1.87-3.63 3.97-.92 5.38 4.2 15.23 15.49 22.87l.61.41-.54.5c-.13.12-13.02 12.22-15.31 29.12zM379.12 313.64c-.27-5.76-4.62-10.5-10.33-11.26l-10.16-1.36-.14-.24c-.06-.1-6.12-10.05-15.74-10.96-2.89-.27-5.25.33-7.01 1.8-2.8 2.35-3.15 6.17-3.15 6.21l-1.16-.09c.01-.18.38-4.33 3.55-7 2-1.68 4.65-2.38 7.87-2.08 9.47.89 15.45 9.66 16.48 11.28l9.62 1.28c6.27.84 11.04 6.03 11.34 12.35l-1.16.05z"/><rect width="1.16" height="6.86" x="332.99" y="297.06" transform="rotate(-31.61 333.525 300.463)"/><rect width="1.16" height="6.86" x="317.7" y="306.5" transform="rotate(-31.61 318.24 309.912)"/><rect width="1.16" height="6.86" x="305.11" y="317.29" transform="rotate(-31.61 305.647 320.695)"/><path fill="#ff9797" d="m333.79,1011.81v15.29h-47.66v-16.19l-20.23,15.74h-114.21c-.51-4.58-.71-8.76-.63-12.59,1.07-49.89,49.82-38.73,69.87-45.41,21.58-7.19,29.68-47.66,29.68-47.66l83.63,12.59c-3.6,10.79-5.85,42.72-5.85,42.72,4.57,6.5,5.8,16.2,5.94,23.83.13,6.63-.55,11.69-.55,11.69Z"/><polygon points="422.53 426.43 405.32 393.82 405.42 393.58 425.17 342.4 426.26 342.81 406.6 393.75 423.56 425.89 422.53 426.43"/><rect width="78.7" height="1.16" x="248.58" y="321.94" transform="rotate(-57.12 287.895 322.504)"/><rect width="214.49" height="1.16" x="168.77" y="660.97" transform="rotate(-84.7 276.012 661.545)"/><polygon points="439.55 526.73 439.23 527.85 259.2 495.54 259.19 495.54 222.38 488.93 189.26 482.98 189.82 481.9 221 487.5 255.65 493.72 439.55 526.73"/><rect width="10.79" height="22.95" x="220.51" y="469.59" fill="#2b2b2b" transform="rotate(10.18 225.81 480.845)"/><rect width="10.79" height="22.95" x="319.88" y="487.58" fill="#2b2b2b" transform="rotate(10.18 325.18 498.813)"/><rect width="10.79" height="22.95" x="425.09" y="506.46" fill="#2b2b2b" transform="rotate(10.18 430.345 517.68)"/><circle cx="422.15" cy="193.25" r="24.95" fill="#575757"/><path fill="#575757" d="M442.93 209.83c5.42-4.54 8.91-11.3 9.48-18.35-2.45 7.03-8.85 12.54-16.17 13.9-3.88.72-14.14 1.85-9.29 8.29 3.71 4.91 12.63-1.04 15.98-3.84zM397.41 178.83c1.62-6.43 6.39-12.51 12.92-13.65 3.91-.68 7.99.48 11.3 2.67 3.31 2.18 5.9 5.31 7.98 8.69-3.44-5-9.88-7.62-15.9-6.83-6.02.8-11.42 4.82-14.29 10.17-2.81 5.25-2.26 10.06-2.13 15.72-.88-5.49-1.25-11.33.12-16.77z"/><path d="m276.6,557.2l-.2-.37c-12.99-24.19-5.98-59.52-5.91-59.87l1.14.23c-.07.35-6.92,34.92,5.6,58.72l20.27-3.53.2,1.14-21.1,3.67Z"/><circle cx="280.96" cy="488.66" r="6.52"/><polygon points="321.1 893 319.96 892.77 362.68 683.69 403.17 520.75 404.29 521.03 363.81 683.94 321.1 893"/><path d="m393.63,560.87c-7.72-2.39-14.2-9.66-16.92-18.96-2.47-8.49-1.9-17.49-.9-25.94l1.15.14c-.98,8.34-1.55,17.19.87,25.48,2.6,8.94,8.79,15.9,16.15,18.18l-.34,1.11Z"/><path d="m392.27,567.48c-8.28-2.91-19.84-13.81-22.34-23.5-2.47-9.6-1.89-19.79-.9-29.36l1.23.13c-.98,9.46-1.55,19.51.87,28.92,2.4,9.33,13.56,19.84,21.55,22.64l-.41,1.17Z"/><path fill="#ff8383" d="M315.47 246.68c-19.5 16.84-50.01 22.25-67 23.99l-2.2-10.67c16.88-1.66 50.11-7.25 66.62-25.86l2.58 12.55zM473.34 411.87l-4.5 11.8c-10.67-14.69-24.04-25.56-39.82-32.37-8.38-3.61-15.5-5.17-19.64-5.82l3.92-10.28c4.82.9 11.66 2.64 19.51 5.98 11.34 4.82 26.73 13.91 40.53 30.69z"/><rect width="95.1" height="23.83" x="246.11" y="908.99" fill="#575757" rx="6.35" ry="6.35" transform="rotate(8.07 293.7 920.993)"/><path d="M333.79 1011.81v15.29h-47.66v-16.19l-20.23 15.74h-114.21c-.51-4.58-.71-8.76-.63-12.59h91.47c5.27 0 10.44-1.5 14.89-4.32l.44-.27c9.65-6.11 20.84-9.35 32.26-9.35h44.21c.13 6.63-.55 11.69-.55 11.69zM266.07 967.1c-19.29-4.18-31.36-5.77-40.38-5.29l-.06-1.16c9.12-.48 21.3 1.11 40.69 5.31l-.25 1.13zM269.51 957.16c-10.77-2.56-21.83-3.76-32.9-3.54l-.02-1.16c11.16-.21 22.33.99 33.19 3.57l-.27 1.13zM250.44 949.22c-12.89-11.48-20.07-25.72-20.77-41.19-.11-2.33-.1-5.35.89-8.13l.03-.07c.69-1.89 2.36-3.04 4.37-3.01 2.03.03 3.76 1.29 4.4 3.21 2.09 6.27 2.81 13.06 3.5 19.64.1.97.2 1.93.31 2.89h0c.96 8.69 2.45 18.58 8.11 25.86l-.84.79zm-15.55-51.23c-1.17 0-2.61.59-3.22 2.24l-.02.05c-.93 2.6-.93 5.48-.83 7.7.62 13.67 6.43 26.38 16.86 37.01-3.68-6.85-4.86-14.99-5.67-22.3h0c-.11-.96-.21-1.93-.31-2.9-.69-6.51-1.4-13.24-3.45-19.39-.48-1.45-1.79-2.4-3.32-2.42-.02 0-.03 0-.05 0z"/><path fill="#575757" d="m402.59,199.77s12.59,13.49-1.35,21.13c-13.94,7.64-31.92,0-39.12,17.99-7.19,17.99-10.79,9.89-14.84,4.5,0,0,9.44,5.4,10.79-13.49.5-6.96-2.25-12.14,6.74-17.99,8.99-5.85,9.89-14.84,22.48-15.74,12.59-.9,15.29,3.6,15.29,3.6Z"/><path fill="#575757" d="m401.24,215.06s-6.74,21.13-.9,26.98c5.85,5.85,10.34,22.48.9,29.23,0,0,16.64-1.8,16.64-18.44s4.95-14.84,8.99-20.68c4.05-5.85-4.5-26.08-21.58-28.78l-4.05,11.69Z"/><path d="m428.42,220.94c-2.22-7.53-7-14.14-13.46-18.61-6.45-4.47-14.32-6.61-22.15-6.05l-.08-1.16c8.09-.59,16.22,1.63,22.9,6.25,6.67,4.62,11.61,11.45,13.91,19.23l-1.11.33Z"/><path d="m438.31,219.96c-3.28,0-6.65-.48-9.49-1.42l-1.24-.41,1.13-.65c4.57-2.62,10.78-3.39,15.17-3.57h0c2.08-.08,3.44.56,3.81,1.81.27.89-.11,1.95-.94,2.63-.69.56-1.53.8-2.33.98-1.89.42-3.98.62-6.11.62Zm-7.77-2.12c4.29,1.12,9.48,1.28,13.63.36.66-.15,1.35-.34,1.85-.75.38-.31.72-.88.56-1.4-.29-.98-1.95-1.01-2.65-.98h0c-3.87.16-9.17.78-13.39,2.77Z"/><rect width="93.77" height="1.16" x="219.69" y="596.89" transform="rotate(-65.65 266.551 597.457)"/></g><g transform="translate(40.539 293.187) scale(.76294)"><path fill="#363636" d="m287.01,683.15s-30.53,28.82-21.07,55.05c9.46,26.24-60.21,42.15-65.8,58.06-5.59,15.91,5.16,22.79,5.16,22.79h102.78s70.1-63.22,74.83-97.2-47.73-66.23-47.73-66.23c0,0-16.34-.86-9.89,15.05,6.45,15.91-15.91,6.02-38.27,12.47Z"/><polygon fill="#ff9696" points="391.08 738.21 391.08 775.62 287.01 775.62 287.01 709.82 391.08 738.21"/><path fill="#d8b8b8" d="m163.58,303.38c19.46-.44,54.83-8.4,92.89-17.63,0,0,33.11-89.46,0-90.75-33.11-1.29-128.15,70.11-92.89,108.38Z"/><path fill="#ff8383" d="m200.14,285.75l-61.67,193.84c-6.62,20.82-2.61,43.57,10.75,60.86l140.8,182.28,45.15-147.95-57.2-63.22,25.37-155.69-103.21-70.11Z"/><path fill="#ff8383" d="m200.14,285.75l64.67,133.11-4.03,116.35,21.93,209.03s111.38-.63,111.54-.43l1.13-205.15,20.64-123.87c8.87-31.17,17.52-42.34,9.17-73.66l-6.16-23.11-218.89-32.26Z"/><path fill="#d8b8b8" d="m269.61,175.97s-17.25.35-16.64-16.65c.49-13.61,2.05-51.76,7.87-62.87,9.22-17.61,30.71-23.67,48.74-21.4l-39.97,100.91Z"/><ellipse cx="163.58" cy="263.81" rx="41.71" ry="39.57"/><path fill="#d8b8b8" d="m308.08,75s113.91,14.3,143.63,35.7c29.72,21.4-36.12,132.04-36.12,132.04l-3.01,71.83s-122.13-10.75-212.44-28.82c0,0,78.02-191.61,107.94-210.75Z"/><path d="m358.82,277.58c-7.48,26.82-16.46,49.82-29.67,45.16-7.31-2.58-13.25-31.02-1.84-56.42,11.41-25.39,22.82-39.58,33.23-38.63,4.73.43,7.74,15.95-1.72,49.89Z"/><path fill="#ff9797" d="m320.97,288.54l111.25,59.01c57.58,31.12,115.87-31.4,48.39-67.73l-120.17-49.24c-49.49-23.76-72.75,43.8-39.47,57.95Z"/><path fill="#ff9797" d="m360.54,230.7l-44.04-37.18c-5.51-4.66-12.2-7.71-19.33-8.83l-36.4-5.71c-5.87-.92-11.49,2.73-13.04,8.47l-7.18,26.69c-.6,2.24-.29,4.62.86,6.62,3.97,6.88,15,21.2,35.26,14.22,0,0,6.88,9.89,22.79.43,0,0,4.73,8.6,26.66,1.29l34.4-6.02Z"/><path fill="#ff9797" d="M323.13 289.62s-142.77-49.89-66.66-72.69c37.27-11.16 104.07 13.76 104.07 13.76 0 0 14.19 30.54-5.16 44.3-19.35 13.76-32.25 14.62-32.25 14.62zM265.07 182.96s-24.08-7.74-31.39-9.46c-7.31-1.72-29.67 30.97-42.14 43.44s14.62 18.49 23.65 9.89c9.03-8.6 19.35-21.5 19.35-21.5l23.22.43s12.9-3.01 15.05-10.75c2.15-7.74-7.74-12.04-7.74-12.04z"/><path d="M360.11 1.03s7.13-16.6 28.81-11.18c20.64 5.16 16.34 22.36 37.41 24.52 0 0-6.02 6.45-10.32 3.87 0 0 8.17 7.31 11.61 3.44 0 0-8.17 16.34-26.66 16.34S360.11 1.03 360.11 1.03zM273.24 234.67c-.18 0-.36-.09-.46-.26l-8.38-13.97c-1.31-2.18-1.69-4.83-1.05-7.29l4.64-17.86c.07-.29.36-.46.65-.38.29.07.46.37.38.65l-4.64 17.86c-.57 2.18-.23 4.54.93 6.47l8.38 13.97c.15.25.07.58-.18.73-.09.05-.18.08-.28.08zM295.61 235.53c-.18 0-.35-.09-.45-.25l-9.2-14.31c-1.62-2.52-2.1-5.61-1.32-8.5l3.57-13.32c.08-.29.37-.45.66-.38.29.08.46.37.38.66l-3.57 13.32c-.7 2.6-.26 5.38 1.19 7.64l9.2 14.31c.16.25.09.58-.16.74-.09.06-.19.09-.29.09z"/><path d="m307.93,240.31s-.01,0-.02,0c-6.74-.28-11.23-3.69-12.38-4.66-7.2,3.71-13.12,4.78-17.58,3.16-2.86-1.03-4.3-2.9-4.88-3.86-5.92,4.42-10.67,4.63-13.64,4-3.34-.71-5.19-2.56-5.27-2.64l-12.46-13.74c-1.99-2.2-2.1-6.88-1.42-9.41l7.07-26.04c.08-.29.37-.45.66-.38s.45.37.38.66l-7.07,26.04c-.7,2.58-.35,6.73,1.18,8.41l12.44,13.73c.26.26,6.91,6.75,17.97-1.86.13-.1.3-.14.47-.1.16.04.29.16.36.31.01.02,1.16,2.65,4.6,3.88,4.18,1.49,10.06.36,17.02-3.29.2-.11.45-.07.62.08.05.04,4.68,4.33,11.98,4.63.3.01.53.26.51.56-.01.29-.25.51-.53.51Z"/><path d="m325.28,264.35c-.09,0-.18-.02-.27-.07-13.97-8.11-17.97-22.01-18.86-32.24-.96-11.04,1.39-20.3,1.41-20.4.07-.29.37-.46.65-.38.29.07.46.37.38.65-.02.09-2.33,9.2-1.38,20.06.88,9.97,4.77,23.5,18.33,31.38.26.15.34.48.19.73-.1.17-.28.27-.46.27Z"/><path d="M303.35 223.49c-.12 0-.24-.04-.34-.13-.23-.19-.26-.53-.07-.75l3.55-4.22c.19-.23.53-.26.75-.07.23.19.26.53.07.75l-3.55 4.22c-.11.13-.26.19-.41.19zM294.61 253.8c-.12 0-.24-.04-.34-.12-9.48-7.63-20.86-12.65-32.89-14.51-.29-.05-.49-.32-.45-.61.04-.29.32-.49.61-.45 12.22 1.89 23.77 6.98 33.4 14.73.23.19.27.52.08.75-.11.13-.26.2-.42.2z"/><path fill="#f2f2f2" d="m308.51,262.4v11.85c0,2.55-2.21,4.61-4.93,4.61H66.69c-2.78,0-5.02-2.1-5.02-4.7v-16.37h241.92c2.72,0,4.93,2.06,4.93,4.61Z"/><path fill="#f2f2f2" d="m217.77,257.79H62.09l-38.56-86.3c-3.23-7.23,1.62-15.5,9.51-16.2l115.85-10.32c10.59-.94,20.61,4.94,24.95,14.64l43.92,98.19Z"/><path fill="#d3d1d1" d="m308.51,262.4v11.85c0,2.55-2.5,4.61-5.59,4.61h-85.15v-21.07h85.15c3.09,0,5.59,2.06,5.59,4.61Z"/><path fill="#ff9797" d="m96.5,300.8l-19.97-14.38c-1.02-.73-1.89-1.64-2.59-2.68l-15.18-22.61c-2.51-3.73-.98-8.87,3.19-10.54,3.91-1.57,8.96-2.1,13.91,1.61,10.32,7.74,34.4,39.14,49.46,43.44,15.05,4.3-18.06,12.04-28.81,5.16Z"/><path fill="#ff9797" d="m128.7,297.11l-28.33-14.81s-25.37-36.56-20.64-40.43c4.53-3.7,16.77-7.31,27.52,9.03,10.75,16.34,19.35,23.23,19.35,23.23l22.79,11.61s-1.29,6.02-9.46,11.18c-8.17,5.16-11.24.18-11.24.18Z"/><path fill="#ff9797" d="m150.68,290.91l-28.1-20.39c-1.37-1-2.5-2.3-3.27-3.82l-11.63-22.67s-2.15-3.87,6.02-5.59c8.17-1.72,18.92,2.58,26.66,21.5l27.09,18.49s4.3,8.17-2.58,12.47-14.19,0-14.19,0Z"/><path fill="#ff9797" d="m188.53,278.44s-21.93-14.19-24.94-18.92c-3.01-4.73-9.89-15.91-17.63-10.32-7.74,5.59,7.74,27.1,7.74,27.1l18.06,13.33s10.75.86,13.33-2.58c2.58-3.44,3.44-8.6,3.44-8.6Z"/><path fill="#ff9797" d="m199.99,278.87c-6.59,17.8-59.34,23.68-77.69,26.24-18.49,2.58-29.7-8.69-29.7-8.69,0,0,33.81-10.73,63.56-17.54h43.83Z"/><path d="M119.72 297.47c-.11 0-.23-.04-.32-.11l-18.09-13.67c-.88-.67-1.64-1.48-2.24-2.41l-10.13-15.6c-.16-.25-.09-.58.16-.74.25-.16.58-.09.74.16l10.13 15.6c.54.83 1.21 1.55 1.99 2.14l18.09 13.67c.24.18.28.51.1.75-.1.14-.27.21-.43.21zM143.8 288c-.12 0-.23-.04-.33-.12l-19.9-15.84c-.82-.66-1.53-1.44-2.1-2.32l-6.04-9.41c-.16-.25-.09-.58.16-.74.25-.16.58-.09.74.16l6.04 9.41c.51.79 1.13 1.48 1.86 2.07l19.9 15.84c.23.18.27.52.09.75-.11.13-.26.2-.42.2zM162.72 286.28c-.14 0-.28-.06-.39-.17l-9.03-9.46s-.06-.07-.08-.12l-8.76-16.26c-.14-.26-.04-.59.22-.73.26-.14.59-.04.73.22l8.73 16.2 8.98 9.41c.2.21.2.55-.02.76-.1.1-.24.15-.37.15z"/><ellipse cx="114.22" cy="205.91" fill="#d3d1d1" rx="8.58" ry="10.72" transform="rotate(-56.07 114.23 205.924)"/><line x1="194.55" x2="445.26" y1="303.38" y2="339.51" fill="#d8b8b8"/><path d="m374.52,744.32c-.29,0-.52-.23-.53-.51l-8.82-206.01s0-.05,0-.07l17.63-202.14c.03-.29.28-.51.58-.49.29.03.51.29.49.58l-17.63,202.11,8.81,205.97c.01.3-.22.55-.51.56,0,0-.02,0-.02,0Z"/><path fill="#d8b8b8" d="m422.9,299.51l-5.61-90.93c-6.58-19.4-9.22-40.13-7.14-60.62,1.84-18.1-3.38-42.02,10.17-45,28.53-6.28,56.51,23.4,63.65,46.02,7.13,22.62,35.69,156.55,35.69,156.55,0,0-6.79,33.27-34.13,37.04-27.34,3.77-62.63-43.06-62.63-43.06Z"/><path fill="#ff9797" d="m357.1,108.12c-26.5-4.82-17.67-28.39-13.76-28.39,2.2,0,4.18-.32,5.96-.89,1.46-.46,2.79-1.08,4-1.82h0c6.49-3.98,9.28-11.24,9.81-14.25l30.99-14.86,3.62-1.74,6.25-3c-3.8,10.24-3.44,33.12,3.01,46.45,7.23,14.94-16.77,24.52-49.89,18.49Z"/><path d="m394.1,47.91c-1.51,10.32-8.3,30.2-38.29,29.24-.87-.03-1.71-.07-2.51-.13,6.49-3.98,9.28-11.24,9.81-14.25l30.99-14.86Z"/><path fill="#ff9797" d="m412.45,24.15c-2.65-2.81-6.47-3.92-10.29-3.39-5.34-15.78-18.18-23.31-32.19-19.99-15.17,3.59-25.96,18.53-21.57,37.08s9.82,33.13,24.99,29.54c8.49-2.01,18.24-9.3,24.4-18.58,4.9-1.05,10.14-3.69,13.11-6.48,5.46-5.15,6.15-13.29,1.55-18.17Z"/><path d="m411.16,34.86c-2.31-2.9-5.51-5.14-9.03-6.3l.35-1.05c3.72,1.24,7.11,3.6,9.55,6.67l-.87.69Z"/><path fill="#fff" d="m408.24,31.2c-.31,1.73-.62,3.46-.93,5.19"/><rect width="5.27" height="1.11" x="405.14" y="33.24" transform="rotate(-79.84 407.768 33.798)"/><ellipse cx="374.97" cy="30.05" rx="1.76" ry="2.46" transform="rotate(-13.32 375.026 30.03)"/><ellipse cx="357" cy="33.7" rx="1.76" ry="2.46" transform="rotate(-13.32 357.062 33.706)"/><path d="M360.37 45.91l-.62-.92c2.62-1.78 4.47-4.6 5.06-7.72.59-3.12-.1-6.41-1.89-9.03l.92-.63c1.95 2.86 2.71 6.46 2.06 9.86-.65 3.41-2.66 6.48-5.52 8.43zM369.4 52.38l-.29-1.07c4.35-1.19 7.91-5.13 8.67-9.58l1.09.19c-.83 4.94-4.64 9.14-9.46 10.47z"/><path d="m369.01,68.48c-1.35,0-2.63-.17-3.84-.5-.3-.08-.47-.39-.39-.68.08-.3.39-.47.68-.39,2.31.63,4.93.61,7.8-.07,8.43-2,18.11-9.37,24.07-18.35l.13-.19.22-.05c4.73-1.01,9.89-3.56,12.84-6.35,2.54-2.4,4.1-5.53,4.38-8.83.28-3.27-.73-6.31-2.85-8.56-2.43-2.58-6-3.75-9.8-3.22l-.45.06-.15-.44c-5.16-15.24-17.54-22.95-31.54-19.63-.3.07-.6-.11-.67-.41-.07-.3.11-.6.41-.67,14.47-3.43,27.26,4.39,32.7,19.93,3.99-.43,7.73.87,10.31,3.61,2.34,2.48,3.46,5.82,3.15,9.41-.3,3.57-1.98,6.96-4.72,9.54-3.04,2.87-8.3,5.5-13.15,6.58-6.21,9.25-15.84,16.55-24.61,18.63-1.57.37-3.08.56-4.51.56Z"/><path fill="#d8b8b8" d="m519.82,310.22c1.99,91.23-129.57,41.03-189.72,12.77,19.49,6.29,44.5-91.61,31.41-94.98l130.1,42.91c17.13,5.8,27.83,21.84,28.21,39.31Z"/><path fill="#363636" d="m405.68,86.58s6.04,15.52-18.91,18.96-37.84-.86-43.43-11.18c-5.59-10.32,6.02-15.48,6.02-15.48,0,0-.86.51-6.88.43-11.97-.15-20.89,21.99-20.78,31.49.03,2.2,2.71,3.25,4.21,1.63,3.88-4.18,11.48-11.7,15.28-9.47,5.18,3.05,8.17,19.78,12.04,20.64s15.39-13.26,23.65-13.33c6.77-.06,11.11,11.55,13.4,18.81.61,1.92,2.98,2.58,4.5,1.26,7.26-6.32,23.84-22.48,20.8-35.99l-9.91-7.77Z"/><circle cx="349.15" cy="135" r="4.09" fill="#363636"/><circle cx="338.83" cy="156.07" r="4.09" fill="#363636"/><path d="M247.44 177.9c-.08 0-.15-.02-.23-.05-.27-.13-.38-.45-.26-.71l33.97-72.26c.13-.27.44-.38.71-.26.27.13.38.45.26.71l-33.97 72.26c-.09.19-.28.31-.49.31zM419.46 246.28c-.28 0-.52-.22-.53-.5l-3.44-58.49c-.02-.3.21-.55.5-.57.3-.01.55.21.57.5l3.44 58.49c.02.3-.21.55-.5.57-.01 0-.02 0-.03 0z"/><path d="M416.74 210.62c-.17 0-.34-.08-.45-.24-4.71-7.08-7.39-15.66-7.55-24.15 0-.3.23-.54.53-.55.3-.02.54.23.55.53.16 8.3 2.78 16.67 7.37 23.58.16.25.1.58-.15.74-.09.06-.19.09-.3.09zM459.45 260.91c-.06 0-.11 0-.17-.03l-98.05-32.26c-.28-.09-.43-.4-.34-.68.09-.28.4-.43.68-.34l98.05 32.26c.28.09.43.4.34.68-.07.23-.28.37-.51.37z"/><path d="M419.2 247.35c-.21 0-.41-.12-.49-.33-.11-.27.02-.59.29-.7 5.99-2.49 12.54-3.3 18.96-2.35.29.04.49.32.45.61-.04.29-.32.5-.61.45-6.22-.92-12.58-.13-18.39 2.28-.07.03-.14.04-.2.04zM280.45 723.26c-.27 0-.5-.21-.53-.48l-18.82-187.52s0-.05 0-.07l6.87-172.55-12.59-6.3c-.17-.08-.28-.25-.29-.44l-4.3-60.64c-.02-.29.2-.55.5-.57.3-.02.55.2.57.5l4.28 60.34 12.63 6.31c.19.09.3.29.3.5l-6.88 172.86 18.81 187.48c.03.29-.19.56-.48.59-.02 0-.04 0-.05 0z"/><path d="m268.51,362.84s-.02,0-.03,0c-.3-.02-.52-.27-.51-.56l3.44-64.51c.02-.3.28-.52.56-.51.3.02.52.27.51.56l-3.44,64.51c-.02.29-.25.51-.53.51Z"/><circle cx="261.63" cy="304.24" r="5.16"/><rect width="9.36" height="19.97" x="215.22" y="289.63" fill="#d8b8b8" transform="rotate(8.2 219.893 299.602)"/><rect width="9.36" height="19.97" x="304.67" y="304.69" fill="#d8b8b8" transform="rotate(8.2 309.312 314.646)"/><path d="M213.9 309.51s-.05 0-.08 0c-.29-.04-.5-.31-.45-.61l2.58-18.06c.04-.29.31-.5.61-.45.29.04.5.31.45.61l-2.58 18.06c-.04.27-.27.46-.53.46zM303.35 324.56s-.05 0-.08 0c-.29-.04-.49-.32-.45-.61l3.01-19.78c.04-.29.32-.49.61-.45.29.04.49.32.45.61l-3.01 19.78c-.04.27-.27.45-.53.45z"/><path fill="#363636" d="m392.8,828.1h-206.13c-8.27,0-14.82-7.11-13.99-15.34.05-.48.1-.96.17-1.43,5.53-43.42,59.92-40.82,72.43-45.37,5.37-1.95,13.94-9.55,22.44-18.15,16.94-17.13,43.98-18.94,63.05-4.22,26,20.07,43.36,32.71,57.99,6.61,1.89-3.37,7.01-2.22,7.27,1.63l4.08,59.5.57,8.34c.31,4.56-3.3,8.43-7.88,8.43Z"/><path d="M236.93 768.26c-.26 0-.49-.19-.53-.46-.04-.29.16-.56.45-.61l1.19-.18c8.73-1.28 13.55-1.99 25.93-16.24 13.05-15.02 26.29-16.38 26.85-16.44.3-.02.55.19.58.48s-.19.55-.48.58c-.13.01-13.39 1.4-26.14 16.07-12.64 14.56-17.6 15.28-26.58 16.6l-1.18.17s-.05 0-.08 0zM392.8 828.1h-206.13c-8.27 0-14.82-7.11-13.99-15.34.05-.48.1-.96.17-1.43h227.26l.57 8.34c.31 4.56-3.3 8.43-7.88 8.43zM260.82 788.09c-.1 0-.2-.03-.29-.08-13.63-8.69-30-12.63-46.1-11.1-.29.03-.56-.19-.58-.48-.03-.29.19-.56.48-.58 16.33-1.56 32.94 2.44 46.77 11.26.25.16.32.49.16.74-.1.16-.28.25-.45.25zM398.82 8.77c-5.16-11.61-23.22-18.06-31.82-10.32-.54.49-1.05.96-1.53 1.42-15.74-1.74-21.71 15.31-22.13 24.82-.43 9.89-6.02 10.32-6.02 10.32 0 2.15 4.3 3.01 4.3 3.01 12.47 1.29 6.88-19.35 12.47-24.09 3.38-2.86 6.02 0 6.02 0h0s3.87-6.02 8.6-1.72 27.52 26.24 39.13 6.02c0 0-3.87 2.15-9.03-9.46z"/><path d="M369.14-3.28s-8.6-5.16-17.63-.86-12.9 21.07-19.35 23.66c0 0 2.58 2.58 6.45.43 0 0-3.01 4.3-5.16 6.45 0 0 10.52 13.33 14.62 2.15s21.07-31.83 21.07-31.83zM302.92 258.33h-139.33c-.3 0-.54-.24-.54-.54s.24-.54.54-.54h139.33c.3 0 .54.24.54.54s-.24.54-.54.54z"/></g><g transform="translate(358.296 691.038) scale(.51895)"><path fill="#363636" d="m470.45,450.52H40.13c-.35,0-.7,0-1.05-.01-29.31-.74-40.32-52.78-11.01-53.39,256.05-5.32,249.31-330.25-6.74-324.93-29.59.61-11.84-55.82,17.75-56.57.35,0,.7-.01,1.05-.01h430.32c1.78,0,3.53.11,5.24.34,27.45,3.54,42.84,56.42,15.17,55.84-262.43-5.5-269.25,320.03-6.82,325.53,27.92.59,18.42,50.11-9.35,53-1.39.14-2.81.22-4.24.22Z"/><rect width="511.52" height="32.04" x="-.47" y="-.25" fill="#d8b8b8"/><path d="m511.58,32.31H-1V-.78H511.58v33.09ZM.06,31.26h510.46V.28H.06v30.98Z"/><rect width="205.12" height="32.04" x="305.93" y="-.25" fill="#f2f2f2"/><path d="m511.58,32.31h-206.18V-.78h206.18v33.09Zm-205.12-1.06h204.07V.28h-204.07v30.98Z"/></g><g transform="translate(420.172 524.319) scale(.37172)"><path fill="#ff8383" d="m212.57,213.26l-39.68,125.64c-.96,3.03-4.58,4.58-8.09,3.47h0c-3.51-1.11-5.59-4.46-4.63-7.49l39.68-125.64,12.73,4.02Z"/><polygon fill="#fac9c9" points="212.57 213.26 199.84 209.25 206.5 201.97 210.93 197.12 211.59 203.58 212.57 213.26"/><polygon points="211.59 203.58 206.5 201.97 210.93 197.12 211.59 203.58"/><rect width="2.47" height="124.31" x="186.25" y="208.37" transform="rotate(17.52 187.479 270.508)"/><path fill="#ff9696" d="m175.14,331.8l-2.24,7.1c-.96,3.03-4.58,4.58-8.09,3.47h0c-3.51-1.11-5.59-4.46-4.63-7.49l2.24-7.1,12.73,4.02Z"/><rect width="20.17" height="33.81" x="162.59" y="210.42" fill="#f90000" rx="1.9" ry="1.9" transform="rotate(9.45 172.635 227.285)"/><path fill="#f90000" d="m152.83,243.32h17.75v94.91c0,2.69-2.18,4.88-4.88,4.88h-8c-2.69,0-4.88-2.18-4.88-4.88v-94.91h0Z" transform="rotate(9.45 161.693 293.116)"/><rect width="2.02" height="47.98" x="181" y="214.83" fill="#f90000" transform="rotate(9.45 181.988 238.754)"/><rect width=".47" height="16.54" x="169.62" y="236" transform="rotate(-80.55 169.863 244.268)"/><rect width="28.9" height=".47" x="168.38" y="228.78" transform="rotate(-80.58 182.816 229.012)"/><rect width="27.5" height="162.05" x="117.41" y="179.46" fill="#f2f2f2" transform="rotate(-10.5 131.24 260.584)"/><rect width="12.06" height="151.92" x="125.12" y="184.53" fill="#d8b8b8" transform="rotate(-10.5 131.24 260.584)"/><path fill="#f90000" d="m287.12,441.41c.54,0,.81.64.43,1.03-2.52,2.63-6.06,4.27-10,4.27H18.19c-7.64,0-13.83-6.19-13.83-13.82v-23.96c0-7.63,6.19-13.82,13.83-13.82h259.37c4.14,0,7.85,1.82,10.38,4.7.21.24.04.61-.27.61h-66.71c-4,0-7.24,3.24-7.24,7.23v26.53c0,4,3.24,7.23,7.24,7.23h66.16Z"/><path fill="#ce3232" d="m305.08,352.18h-47.95v36.65h47.44c-2.46,3.78-6.73,6.27-11.58,6.27H33.62c-7.64,0-13.83-6.19-13.83-13.82v-23.96c0-7.63,6.19-13.82,13.83-13.82h259.37c5.55,0,10.33,3.26,12.53,7.98.15.33-.08.7-.44.7Z"/><path d="m204.99,262.09c-.11-.13-.27-.2-.43-.2h-89.72c-.17,0-.32.07-.43.2-.11.13-.16.29-.14.45l1.8,15.08.16,1.31.37,3.08.21,1.72,1.98,16.52h0s.16,1.31.16,1.31l1.22,10.2.21,1.72,1.12,9.41.16,1.31,2.26,18.9c.03.29.28.52.58.52h70.43c.29,0,.55-.22.58-.52l1.94-16.23.17-1.39.62-5.19.19-1.54,1.92-16.03.17-1.39.93-7.75.18-1.54,1.62-13.47.16-1.4,1.23-10.31.19-1.54.33-2.75c.02-.16-.03-.33-.14-.45Zm-19.66.97l10.08,8.72-16.14,11.16-14.83-12.84,10.19-7.04h10.7Zm-24.17,32.4l-16.14,11.16-14.83-12.84,16.14-11.16,14.83,12.84Zm-13.84-13.52l16.14-11.16,14.83,12.84-16.14,11.16-14.83-12.84Zm-1.38,25.46l16.14-11.16,14.83,12.84-16.14,11.16-14.83-12.84Zm13.84,13.52l-16.14,11.16-14.83-12.84,16.14-11.16,14.83,12.84Zm18.04-11.05l14.84,12.84-16.14,11.16-14.83-12.84,16.14-11.16Zm-14.75-14.3l16.14-11.16,14.83,12.84-16.14,11.16-14.83-12.84Zm9.52-32.51l-9.05,6.26-7.23-6.26h16.28Zm-18.05,0l8.01,6.94-16.14,11.16h0l-14.83-12.84,7.6-5.25h15.36Zm-17.4,0l-6.46,4.47-5.16-4.47h11.63Zm-21.63,0h8.23l5.95,5.15-12.53,8.66-1.65-13.81Zm1.81,15.12h0s13.28-9.18,13.28-9.18l14.83,12.84-16.14,11.16-11.38-9.85h0s-.6-4.96-.6-4.96Zm.8,6.68l10.19,8.82-8.43,5.83-1.76-14.64Zm1.91,15.95l9.18-6.35,14.84,12.84-16.14,11.16-6.44-5.57-1.45-12.08Zm1.65,13.8l5.24,4.53-4.34,2.99-.9-7.53Zm3.33,27.83l-2.28-18.99,5.09-3.52,14.83,12.84-13.99,9.67h-3.66Zm5.7,0l12.86-8.88,10.27,8.88h-23.12Zm24.9,0l-11.06-9.57,16.14-11.16,14.83,12.84-11.41,7.89h-8.51Zm10.55,0l10.27-7.1,8.2,7.1h-18.47Zm28.24,0h-7.99l-8.99-7.78,16.14-11.16,2.82,2.44-1.98,16.5Zm2.14-17.89l-1.99-1.73,2.4-1.66-.41,3.39Zm.59-4.93l-3.5,2.42-14.83-12.84,16.14-11.16,4.33,3.74-2.14,17.83Zm2.3-19.23l-3.5-3.03,4.22-2.91-.71,5.95Zm.9-7.49l-5.31,3.67-14.84-12.84,16.14-11.16,5.83,5.05-1.83,15.27Zm2-16.67l-5.01-4.34,6.03-4.17-1.02,8.51Zm-5.92-5.13l-9.29-8.04h16.79l-.37,3.12-7.12,4.92Z"/><rect width="12.06" height="50.64" x="82.03" y="343.98" fill="#ff9797"/><path fill="#ff9797" d="m257.13,359.42v22.19c0,4,3.24,7.23,7.24,7.23h39.95c-2.5,3.5-6.64,5.79-11.33,5.79h-34.73c-5.15,0-9.33-4.18-9.33-9.33v-31.99c0-5.15,4.18-9.33,9.33-9.33h34.73c5.49,0,10.24,3.14,12.47,7.69.11.23-.06.51-.32.51h-40.77c-4,0-7.24,3.24-7.24,7.23Z"/><path d="m292.99,342.9H33.62c-7.97,0-14.43,6.46-14.43,14.43v23.96c0,7.97,6.46,14.43,14.43,14.43h259.37c5.19,0,9.74-2.75,12.29-6.87h-1.45c-2.39,3.42-6.36,5.67-10.84,5.67H33.62c-7.3,0-13.22-5.92-13.22-13.22v-23.96c0-7.3,5.92-13.22,13.22-13.22h259.37c5.47,0,10.17,3.34,12.18,8.08h0c.63,0,1.04-.67.76-1.24-2.36-4.77-7.27-8.05-12.94-8.05Z"/><rect width="13.51" height="50.64" x="39.09" y="395.59" fill="#ff8383"/><rect width="65.6" height="50.64" x="74.79" y="395.59" fill="#ff8383"/><path d="m287.93,441.41c-.17,0-.34.08-.45.21-2.42,2.75-5.97,4.5-9.92,4.5H18.19c-7.3,0-13.22-5.92-13.22-13.22v-23.96c0-7.3,5.92-13.22,13.22-13.22h259.37c4.05,0,7.67,1.83,10.1,4.7h0c.63,0,.96-.76.54-1.22-2.64-2.88-6.43-4.69-10.63-4.69H18.19c-7.97,0-14.43,6.46-14.43,14.43v23.96c0,7.97,6.46,14.43,14.43,14.43h259.37c4.31,0,8.19-1.9,10.83-4.91.34-.39.05-1-.46-1h0Z"/><path fill="#f6e9e9" d="m302.96,352.18v36.65h-38.59c-3.99,0-7.24-3.24-7.24-7.23v-22.19c0-3.99,3.24-7.23,7.24-7.23h38.59Z"/><path d="M302.96 357.87v1.17h-38.59c-.32 0-.58-.26-.58-.58s.26-.58.58-.58h38.59zM302.96 365.59v1.17h-38.59c-.32 0-.58-.26-.58-.58s.26-.58.58-.58h38.59zM302.96 373.3v1.17h-38.59c-.32 0-.58-.26-.58-.58s.26-.58.58-.58h38.59zM302.96 381.02v1.17h-38.59c-.32 0-.58-.26-.58-.58s.26-.58.58-.58h38.59z"/><path fill="#f6e9e9" d="m284.63,400.41v40.99h-63.67c-3.99,0-7.24-3.24-7.24-7.23v-26.53c0-3.99,3.24-7.23,7.24-7.23h63.67Z"/><path d="M284.63 406.58v1.17h-59.82c-.32 0-.58-.26-.58-.58s.26-.58.58-.58h59.82zM284.63 415.26v1.17h-59.82c-.32 0-.58-.26-.58-.58s.26-.58.58-.58h59.82zM284.63 423.94v1.17h-59.82c-.32 0-.58-.26-.58-.58s.26-.58.58-.58h59.82zM284.63 432.62v1.17h-59.82c-.32 0-.58-.26-.58-.58s.26-.58.58-.58h59.82z"/></g></svg>